<?xml version="1.0" encoding="UTF-8" standalone="no"?>
<svg
   xmlns:dc="http://purl.org/dc/elements/1.1/"
   xmlns:cc="http://creativecommons.org/ns#"
   xmlns:rdf="http://www.w3.org/1999/02/22-rdf-syntax-ns#"
   xmlns:svg="http://www.w3.org/2000/svg"
   xmlns="http://www.w3.org/2000/svg"
   xmlns:sodipodi="http://sodipodi.sourceforge.net/DTD/sodipodi-0.dtd"
   xmlns:inkscape="http://www.inkscape.org/namespaces/inkscape"
   version="1.1"
   preserveAspectRatio="xMinYMin meet"
   viewBox="0 0 78.155161 78.155161"
   xml:space="preserve"
   id="svg2"
   inkscape:version="0.48.4 r9939"
   sodipodi:docname="adwords.svg">
   <metadata
     id="metadata14"><rdf:RDF><cc:Work
         rdf:about=""><dc:format>image/svg+xml</dc:format><dc:type
           rdf:resource="http://purl.org/dc/dcmitype/StillImage" /><dc:title /></cc:Work></rdf:RDF></metadata><defs
     id="defs12" /><sodipodi:namedview
     pagecolor="#ffffff"
     bordercolor="#666666"
     borderopacity="1"
     objecttolerance="10"
     gridtolerance="10"
     guidetolerance="10"
     inkscape:pageopacity="0"
     inkscape:pageshadow="2"
     inkscape:window-width="1317"
     inkscape:window-height="744"
     id="namedview10"
     showgrid="false"
     inkscape:zoom="5.3400704"
     inkscape:cx="54.070041"
     inkscape:cy="40.583909"
     inkscape:window-x="49"
     inkscape:window-y="24"
     inkscape:window-maximized="1"
     inkscape:current-layer="svg2"
     fit-margin-top="0"
     fit-margin-left="0"
     fit-margin-right="0"
     fit-margin-bottom="0" /><path
     sodipodi:type="arc"
     style="fill:none;stroke:#333333;stroke-width:0.91806322;stroke-linecap:butt;stroke-linejoin:round;stroke-miterlimit:4;stroke-opacity:1;stroke-dasharray:none"
     id="path4986"
     sodipodi:cx="51.641949"
     sodipodi:cy="39.989407"
     sodipodi:rx="34.957626"
     sodipodi:ry="34.957626"
     d="m 86.599575,39.989407 a 34.957626,34.957626 0 1 1 -69.915253,0 34.957626,34.957626 0 1 1 69.915253,0 z"
     transform="matrix(0.9835008,0,0,0.9835008,-11.712317,-0.25203286)" /><g
     inkscape:groupmode="layer"
     id="layer1"
     inkscape:label="Fundo"
     style="display:inline" /><path
     sodipodi:nodetypes="ccccc"
     inkscape:connector-curvature="0"
     id="path6261-9"
     d="m 2.8079283,66.545713 0,-55.763307 72.9178207,0 0,55.763307 z"
     style="fill:#ffffff;fill-opacity:1;stroke:none" /><g
     id="g6302"
     transform="matrix(0.67280148,0,0,0.67280148,-22.003737,-44.799694)"><g
       id="g6331"
       style="stroke:#fa3077;stroke-width:2.78454399;stroke-miterlimit:4;stroke-opacity:1;stroke-dasharray:none"><path
         style="fill:none;stroke:#fa3077;stroke-width:2.78454399;stroke-linecap:butt;stroke-linejoin:round;stroke-miterlimit:4;stroke-opacity:1;stroke-dasharray:none"
         d="m 38.930085,161.97401 0,-75.079445 104.078385,0 0,75.079445 z"
         id="path6261"
         inkscape:connector-curvature="0"
         sodipodi:nodetypes="ccccc" /><path
         style="fill:none;stroke:#fa3077;stroke-width:2.78454399;stroke-linecap:butt;stroke-linejoin:round;stroke-miterlimit:4;stroke-opacity:1;stroke-dasharray:none"
         d="m 48.463983,161.04711 0,-54.81992 51.906777,0 0,55.61441"
         id="path6263"
         inkscape:connector-curvature="0"
         sodipodi:nodetypes="cccc" /><path
         style="fill:#fa3077;fill-opacity:1;stroke:#fa3077;stroke-width:2.78454399;stroke-linecap:butt;stroke-linejoin:round;stroke-miterlimit:4;stroke-opacity:1;stroke-dasharray:none"
         d="m 108.71151,106.22719 0,23.16039 25.68997,0 0,-23.16039 z"
         id="path6265"
         inkscape:connector-curvature="0"
         sodipodi:nodetypes="ccccc" /><path
         style="fill:none;stroke:#fa3077;stroke-width:2.78454399;stroke-linecap:butt;stroke-linejoin:round;stroke-miterlimit:4;stroke-opacity:1;stroke-dasharray:none"
         d="m 108.71151,162.10643 0,-24.03206 25.68997,0 0,24.29689"
         id="path6267"
         inkscape:connector-curvature="0"
         sodipodi:nodetypes="cccc" /><path
         style="fill:none;stroke:#fa3077;stroke-width:2.78454399;stroke-linecap:butt;stroke-linejoin:round;stroke-miterlimit:4;stroke-opacity:1;stroke-dasharray:none"
         d="m 38.930085,96.958125 104.343225,0"
         id="path6269"
         inkscape:connector-curvature="0" /><path
         style="fill:none;stroke:#fa3077;stroke-width:2.78454399;stroke-linecap:round;stroke-linejoin:round;stroke-miterlimit:4;stroke-opacity:1;stroke-dasharray:none"
         d="m 65.942799,91.793932 68.591101,0"
         id="path6271"
         inkscape:connector-curvature="0" /><path
         sodipodi:type="arc"
         style="fill:#fa3077;fill-opacity:1;stroke:#fa3077;stroke-width:4.10876131;stroke-linecap:round;stroke-linejoin:round;stroke-miterlimit:4;stroke-opacity:1;stroke-dasharray:none"
         id="path6275"
         sodipodi:cx="45.286018"
         sodipodi:cy="92.456009"
         sodipodi:rx="1.3241526"
         sodipodi:ry="1.3241526"
         d="m 46.610171,92.456009 c 0,0.731309 -0.592843,1.324152 -1.324153,1.324152 -0.731309,0 -1.324152,-0.592843 -1.324152,-1.324152 0,-0.731309 0.592843,-1.324153 1.324152,-1.324153 0.73131,0 1.324153,0.592844 1.324153,1.324153 z"
         transform="matrix(0.67770887,0,0,0.67770887,14.501651,29.135675)" /><path
         sodipodi:type="arc"
         style="fill:#fa3077;fill-opacity:1;stroke:#fa3077;stroke-width:4.10876131;stroke-linecap:round;stroke-linejoin:round;stroke-miterlimit:4;stroke-opacity:1;stroke-dasharray:none"
         id="path6275-4"
         sodipodi:cx="45.286018"
         sodipodi:cy="92.456009"
         sodipodi:rx="1.3241526"
         sodipodi:ry="1.3241526"
         d="m 46.610171,92.456009 c 0,0.731309 -0.592843,1.324152 -1.324153,1.324152 -0.731309,0 -1.324152,-0.592843 -1.324152,-1.324152 0,-0.731309 0.592843,-1.324153 1.324152,-1.324153 0.73131,0 1.324153,0.592844 1.324153,1.324153 z"
         transform="matrix(0.67770887,0,0,0.67770887,20.289138,29.135675)" /><path
         sodipodi:type="arc"
         style="fill:#fa3077;fill-opacity:1;stroke:#fa3077;stroke-width:4.10876131;stroke-linecap:round;stroke-linejoin:round;stroke-miterlimit:4;stroke-opacity:1;stroke-dasharray:none"
         id="path6275-6"
         sodipodi:cx="45.286018"
         sodipodi:cy="92.456009"
         sodipodi:rx="1.3241526"
         sodipodi:ry="1.3241526"
         d="m 46.610171,92.456009 c 0,0.731309 -0.592843,1.324152 -1.324153,1.324152 -0.731309,0 -1.324152,-0.592843 -1.324152,-1.324152 0,-0.731309 0.592843,-1.324153 1.324152,-1.324153 0.73131,0 1.324153,0.592844 1.324153,1.324153 z"
         transform="matrix(0.67770887,0,0,0.67770887,25.784372,29.135675)" /></g></g></svg>
