<?xml version="1.0" encoding="UTF-8" standalone="no"?>
<svg
   xmlns:dc="http://purl.org/dc/elements/1.1/"
   xmlns:cc="http://creativecommons.org/ns#"
   xmlns:rdf="http://www.w3.org/1999/02/22-rdf-syntax-ns#"
   xmlns:svg="http://www.w3.org/2000/svg"
   xmlns="http://www.w3.org/2000/svg"
   xmlns:sodipodi="http://sodipodi.sourceforge.net/DTD/sodipodi-0.dtd"
   xmlns:inkscape="http://www.inkscape.org/namespaces/inkscape"
   version="1.1"
   x="0px"
   y="0px"
   viewBox="0 0 78.155161 78.155161"
   enable-background="new 0 0 100 100"
   xml:space="preserve"
   id="svg2"
   inkscape:version="0.48.4 r9939"
   width="100%"
   height="100%"
   sodipodi:docname="branding.svg"><metadata
     id="metadata14"><rdf:RDF><cc:Work
         rdf:about=""><dc:format>image/svg+xml</dc:format><dc:type
           rdf:resource="http://purl.org/dc/dcmitype/StillImage" /><dc:title></dc:title></cc:Work></rdf:RDF></metadata><defs
     id="defs12" /><sodipodi:namedview
     pagecolor="#ffffff"
     bordercolor="#666666"
     borderopacity="1"
     objecttolerance="10"
     gridtolerance="10"
     guidetolerance="10"
     inkscape:pageopacity="0"
     inkscape:pageshadow="2"
     inkscape:window-width="1317"
     inkscape:window-height="744"
     id="namedview10"
     showgrid="false"
     inkscape:zoom="3.776"
     inkscape:cx="63.610487"
     inkscape:cy="26.109237"
     inkscape:window-x="49"
     inkscape:window-y="24"
     inkscape:window-maximized="1"
     inkscape:current-layer="svg2"
     fit-margin-top="0"
     fit-margin-left="0"
     fit-margin-right="0"
     fit-margin-bottom="0" /><path
     sodipodi:type="arc"
     style="fill:none;stroke:#333333;stroke-width:0.91806322;stroke-linecap:butt;stroke-linejoin:round;stroke-miterlimit:4;stroke-opacity:1;stroke-dasharray:none"
     id="path4986"
     sodipodi:cx="51.641949"
     sodipodi:cy="39.989407"
     sodipodi:rx="34.957626"
     sodipodi:ry="34.957626"
     d="m 86.599575,39.989407 a 34.957626,34.957626 0 1 1 -69.915253,0 34.957626,34.957626 0 1 1 69.915253,0 z"
     transform="matrix(0.9835008,0,0,0.9835008,-11.712317,-0.25203286)" /><path
     style="fill:#ffffff;fill-opacity:1;stroke:none"
     d="m 51.112288,8.2399048 26.483051,-10e-8 0.132414,23.9671613 -7.150422,4.766948 z"
     id="path5566"
     inkscape:connector-curvature="0"
     sodipodi:nodetypes="ccccc" /><g
     inkscape:groupmode="layer"
     id="layer1"
     inkscape:label="Fundo"
     style="display:inline" /><path
     style="fill:#ffffff;fill-opacity:1;stroke:none"
     d="M 10.725636,55.710777 21.848518,64.84743 18.935381,69.87921 10.85805,69.746795 z"
     id="path5566-4"
     inkscape:connector-curvature="0"
     sodipodi:nodetypes="ccccc" /><g
     id="g5606"
     transform="matrix(1.0724456,0,0,1.0724456,-7.4486473,-0.72177155)"
     style="stroke:#fa3077;stroke-opacity:1"><path
       sodipodi:nodetypes="cssszssccccc"
       inkscape:connector-curvature="0"
       id="path5526"
       d="m 19.862288,63.986727 c 0,0 0,-10.567123 0,-16.022246 0,-1.961708 -1.456568,-2.304963 -1.456568,-4.237288 0,-1.948606 1.456568,-2.086515 1.456568,-4.502119 0,-1.853813 0,-4.911325 0,-9.666313 0,-4.754988 3.316539,-14.716548 17.346398,-14.300848 17.876059,0.529661 16.816738,17.213983 16.816738,17.213983 -0.243347,0.02532 -7.8125,0 -7.8125,0 l -3.045551,-4.369703 -2.648305,4.369703 -13.241526,0 0,25.158899"
       style="fill:none;stroke:#fa3077;stroke-width:2;stroke-linecap:round;stroke-linejoin:round;stroke-miterlimit:4;stroke-opacity:1;stroke-dasharray:none" /><path
       sodipodi:nodetypes="czssc"
       inkscape:connector-curvature="0"
       id="path5528"
       d="m 23.900953,60.808761 c 0,0 0,-1.45298 0,-3.442797 0,-1.989817 -1.65519,-2.913136 -1.65519,-4.369703 0,-1.456568 1.65519,-1.992883 1.65519,-3.707627 0,-1.059322 0,-16.419492 0,-16.419492"
       style="fill:none;stroke:#fa3077;stroke-width:2;stroke-linecap:round;stroke-linejoin:miter;stroke-miterlimit:4;stroke-opacity:1;stroke-dasharray:none" /><path
       sodipodi:nodetypes="cc"
       inkscape:connector-curvature="0"
       id="path5530"
       d="m 36.414195,47.169989 c 0,0 3.543083,3.988523 7.8125,0"
       style="fill:none;stroke:#fa3077;stroke-width:2;stroke-linecap:round;stroke-linejoin:miter;stroke-miterlimit:4;stroke-opacity:1;stroke-dasharray:none" /><path
       id="path5532"
       sodipodi:nodetypes="ccccccccczc"
       inkscape:connector-curvature="0"
       d="m 31.382415,54.452828 11.917373,0 c 5.43064,0 11.041808,-6.744871 11.122882,-11.122881 l 0,-6.355932 5.826271,-5.693856 10.579449,0 c 3.361771,0 5.972458,-3.342814 5.972458,-5.429025 l 0,-8.871823 c 0,-2.782121 -3.085945,-5.826271 -5.429026,-5.826271 0,0 -12.62088,0 -14.565678,0 -1.944798,0 -5.03178,2.25106 -5.03178,6.223517"
       style="fill:none;stroke:#fa3077;stroke-width:2;stroke-linecap:round;stroke-linejoin:round;stroke-miterlimit:4;stroke-opacity:1;stroke-dasharray:none" /><path
       sodipodi:nodetypes="cc"
       inkscape:connector-curvature="0"
       id="path5538"
       d="m 58.196505,25.189057 8.938029,0"
       style="fill:none;stroke:#fa3077;stroke-width:2;stroke-linecap:round;stroke-linejoin:miter;stroke-miterlimit:4;stroke-opacity:1;stroke-dasharray:none" /><path
       sodipodi:nodetypes="cc"
       inkscape:connector-curvature="0"
       id="path5540"
       d="m 58.196505,20.819354 12.115995,0"
       style="fill:none;stroke:#fa3077;stroke-width:2;stroke-linecap:round;stroke-linejoin:miter;stroke-miterlimit:4;stroke-opacity:1;stroke-dasharray:none" /><path
       sodipodi:nodetypes="cc"
       inkscape:connector-curvature="0"
       id="path5542"
       d="m 58.196505,16.714481 14.367055,0"
       style="fill:none;stroke:#fa3077;stroke-width:2;stroke-linecap:round;stroke-linejoin:miter;stroke-miterlimit:4;stroke-opacity:1;stroke-dasharray:none" /><path
       transform="matrix(1.5000001,0,0,1.5000001,-16.618115,-19.612539)"
       d="m 34.295551,39.225075 c 0,0.585047 -0.474275,1.059322 -1.059322,1.059322 -0.585047,0 -1.059322,-0.474275 -1.059322,-1.059322 0,-0.585048 0.474275,-1.059322 1.059322,-1.059322 0.585047,0 1.059322,0.474274 1.059322,1.059322 z"
       sodipodi:ry="1.059322"
       sodipodi:rx="1.059322"
       sodipodi:cy="39.225075"
       sodipodi:cx="33.236229"
       id="path5546"
       style="fill:#fa3077;fill-opacity:1;stroke:#fa3077;stroke-opacity:1"
       sodipodi:type="arc" /><path
       transform="matrix(1.5000001,0,0,1.5000001,-3.5090063,-19.612539)"
       d="m 34.295551,39.225075 c 0,0.585047 -0.474275,1.059322 -1.059322,1.059322 -0.585047,0 -1.059322,-0.474275 -1.059322,-1.059322 0,-0.585048 0.474275,-1.059322 1.059322,-1.059322 0.585047,0 1.059322,0.474274 1.059322,1.059322 z"
       sodipodi:ry="1.059322"
       sodipodi:rx="1.059322"
       sodipodi:cy="39.225075"
       sodipodi:cx="33.236229"
       id="path5546-1"
       style="fill:#fa3077;fill-opacity:1;stroke:#fa3077;stroke-opacity:1"
       sodipodi:type="arc" /></g></svg>