<?xml version="1.0" encoding="UTF-8" standalone="no"?>
<svg
   xmlns:dc="http://purl.org/dc/elements/1.1/"
   xmlns:cc="http://creativecommons.org/ns#"
   xmlns:rdf="http://www.w3.org/1999/02/22-rdf-syntax-ns#"
   xmlns:svg="http://www.w3.org/2000/svg"
   xmlns="http://www.w3.org/2000/svg"
   xmlns:sodipodi="http://sodipodi.sourceforge.net/DTD/sodipodi-0.dtd"
   xmlns:inkscape="http://www.inkscape.org/namespaces/inkscape"
   version="1.1"
   viewBox="0 0 78.155161 78.155161"
   preserveAspectRatio="xMinYMin meet"
   xml:space="preserve"
   id="svg2"
   inkscape:version="0.48.4 r9939"
   sodipodi:docname="illustration.svg">
   <metadata
     id="metadata14"><rdf:RDF><cc:Work
         rdf:about=""><dc:format>image/svg+xml</dc:format><dc:type
           rdf:resource="http://purl.org/dc/dcmitype/StillImage" /><dc:title /></cc:Work></rdf:RDF></metadata><defs
     id="defs12" /><sodipodi:namedview
     pagecolor="#ffffff"
     bordercolor="#666666"
     borderopacity="1"
     objecttolerance="10"
     gridtolerance="10"
     guidetolerance="10"
     inkscape:pageopacity="0"
     inkscape:pageshadow="2"
     inkscape:window-width="1317"
     inkscape:window-height="744"
     id="namedview10"
     showgrid="false"
     inkscape:zoom="2.6700352"
     inkscape:cx="9.7950911"
     inkscape:cy="37.5686"
     inkscape:window-x="49"
     inkscape:window-y="24"
     inkscape:window-maximized="1"
     inkscape:current-layer="svg2"
     fit-margin-top="0"
     fit-margin-left="0"
     fit-margin-right="0"
     fit-margin-bottom="0" /><path
     sodipodi:type="arc"
     style="fill:none;stroke:#333333;stroke-width:0.91806322;stroke-linecap:butt;stroke-linejoin:round;stroke-miterlimit:4;stroke-opacity:1;stroke-dasharray:none"
     id="path4986"
     sodipodi:cx="51.641949"
     sodipodi:cy="39.989407"
     sodipodi:rx="34.957626"
     sodipodi:ry="34.957626"
     d="m 86.599575,39.989407 a 34.957626,34.957626 0 1 1 -69.915253,0 34.957626,34.957626 0 1 1 69.915253,0 z"
     transform="matrix(0.9835008,0,0,0.9835008,-11.712317,-0.25203286)" /><g
     inkscape:groupmode="layer"
     id="layer1"
     inkscape:label="Fundo"
     style="display:inline" /><path
     sodipodi:nodetypes="cccccccccccccccc"
     inkscape:connector-curvature="0"
     id="path6261-9"
     d="M 9.1748858,60.92781 9.7730532,50.845132 40.635146,6.4753466 47.818211,8.1562569 55.875822,-0.45340121 68.898264,18.806366 75.163959,31.3393 69.446496,39.054491 64.045553,60.173788 47.419886,70.1573 l 2.463506,6.313376 c -2.010139,0.999705 1.32999,1.063093 -7.836346,2.062798 l -3.666659,-6.533237 -8.792761,-3.769197 -9.363173,5.43064 z"
     style="fill:#ffffff;fill-opacity:1;stroke:none" /><g
     inkscape:groupmode="layer"
     id="layer2"
     inkscape:label="Icones"><g
       transform="matrix(0.82750957,0,0,0.82750957,-10.972968,-0.79266212)"
       id="g5116"
       style="fill:#fa3077;fill-opacity:1"><g
         id="g5118"
         style="fill:#fa3077;fill-opacity:1"><path
           style="fill:#fa3077;fill-opacity:1;stroke:#fa3077;stroke-width:0.30000001;stroke-miterlimit:4;stroke-opacity:1;stroke-dasharray:none"
           inkscape:connector-curvature="0"
           d="m 88.752,38.696 -3.074,1.555 c -8.047,4.074 -21.515,10.894 -28.362,13.361 -1.006,0.362 -3.433,1.013 -4.243,-0.771 -0.741,-1.63 -0.085,-3.565 1.493,-4.404 l 0.607,-0.323 C 67.807,41.41 79.244,34.446 77.624,28.882 l 8.531,-11.205 8.652,1.695 c 1.728499,0.545791 2.256874,-1.388675 0.385,-1.963 l -7.686,-1.506 3.263,-4.285 C 91.214,11.03 91.405,10.305 91.304,9.574 91.203,8.844 90.825,8.197 90.238,7.751 L 86.03,4.561 C 84.819,3.643 83.084,3.88 82.163,5.093 l -7.089,9.35 -9.676,0 c -2.368,0 -4.48,1.487 -6.277,4.42 -4.236,6.914 -9.747,16.528 -11.636,20.649 -1.37,2.992 -0.83,5.518 1.409,6.59 0.639,0.306 1.235,0.46 1.801,0.494 L 46.257,52.45 C 46,52.79 45.823,53.19 45.745,53.606 l -1.605,8.582 c -0.095,0.504 0.101,1.011 0.509,1.321 0.24,0.182 0.525,0.275 0.813,0.275 0.203,0 0.407,-0.046 0.598,-0.14 l 7.828,-3.863 c 0.382,-0.188 0.72,-0.467 0.977,-0.806 l 2.482,-3.273 c 0.213,-0.062 0.429,-0.128 0.649,-0.208 1.37,-0.494 2.98,-1.149 4.739,-1.911 0.542,1.849 2.253,3.164 4.218,3.164 0.125,0 0.25,-0.005 0.377,-0.016 2.976,-0.254 5.235,-2.741 5.269,-5.668 0.571,0.387 1.232,0.604 1.924,0.604 0.1,0 0.199,-0.004 0.3,-0.013 1.182,-0.101 2.254,-0.656 3.018,-1.562 0.629,-0.747 0.969,-1.662 1.019,-2.621 0.289,0.108 0.596,0.166 0.911,0.166 0.075,0 0.151,-0.003 0.227,-0.009 0.865,-0.074 1.649,-0.48 2.208,-1.144 0.559,-0.663 0.826,-1.504 0.752,-2.37 l -0.02,-0.235 c 1.276,-0.644 2.502,-1.264 3.647,-1.844 l 3.042,-1.539 c 2.252,-1.046 5.336,-1.094 5.366,-1.094 1.513158,-0.0266 1.586166,-2.213425 -0.021,-2 -0.147,10e-4 -3.542,0.05 -6.22,1.294 z M 53.627,46.67 c -0.394,0.209 -0.737,0.473 -1.055,0.759 l 26.331,-34.727 0.76,0.568 -25.11,32.908 c -0.106,0.056 -0.216,0.115 -0.317,0.168 z m -5.423,6.52 3.145,-4.147 c -0.337,0.682 -0.523,1.427 -0.553,2.192 l -1.891,2.487 z M 67.823,38.451 c -0.636,0.429 -1.288,0.854 -1.95,1.274 l 17.72,-23.512 0.741,0.554 z m -6.527,4.029 c -0.846,0.486 -1.674,0.951 -2.466,1.389 l 22.433,-29.4 0.729,0.545 -20.698,27.464 z M 83.756,6.301 C 84.01,5.968 84.488,5.902 84.821,6.155 l 4.207,3.19 c 0.162,0.123 0.267,0.301 0.294,0.502 0.028,0.201 -0.024,0.401 -0.146,0.561 l -3.63,4.768 -5.435,-4.067 z M 49.302,40.345 c 1.832,-4 7.408,-13.723 11.522,-20.438 1.409,-2.299 2.947,-3.465 4.572,-3.465 l 8.16,0 -4.668,6.158 c -0.881,0.013 -3.197,0.27 -4.651,2.499 -1.547,2.366 -6.673,10.816 -9.229,15.271 -2.688,4.684 -3.92,4.566 -5.252,3.929 C 48.08,43.496 48.88,41.266 49.302,40.345 z M 65.91,26.192 c 0.297,-0.456 0.654,-0.776 1.019,-1.009 l -2.291,3.022 c 0.529,-0.851 0.971,-1.552 1.272,-2.013 z m -18.422,28.966 4.434,3.361 -5.579,2.753 z m 6.135,2.141 -3.125,-2.369 0.839,-1.104 c 0.647,1.288 1.787,2.031 3.266,2.18 z m 13.534,-2.562 c -1.242,0.108 -2.343,-0.769 -2.557,-1.979 1.849,-0.828 3.821,-1.748 5.843,-2.714 l 0.145,0.683 c 0.143,2.044 -1.384,3.835 -3.431,4.01 z m 9.151,-5.934 C 75.889,49.3 75.3,49.605 74.65,49.66 c -0.384,0.036 -0.766,-0.086 -1.062,-0.337 -0.192,-0.161 -0.314,-0.373 -0.401,-0.601 1.228,-0.597 2.457,-1.201 3.676,-1.806 l 0.009,0.107 c 0.056,0.65 -0.144,1.282 -0.564,1.78 z m 4.365,-3.607 c -0.215,0.254 -0.516,0.41 -0.849,0.438 -0.098,0.012 -0.193,-0.012 -0.283,-0.05 0.428,-0.214 0.848,-0.425 1.269,-0.636 -0.043,0.084 -0.075,0.174 -0.137,0.248 z"
           id="path5120"
           sodipodi:nodetypes="cccccccccccccccccsscccccccsccccccsccscccsccccccccccccccccccccccccccccccccccccccccccscccccccccccccccccccccccccccccccccccc" /><path
           style="fill:#fa3077;fill-opacity:1;stroke:#fa3077;stroke-width:0.30000001;stroke-miterlimit:4;stroke-opacity:1;stroke-dasharray:none"
           inkscape:connector-curvature="0"
           d="m 75.641,75.066 c -4.672298,1.860761 -12.611,4.85 -12.611,4.85 L 51.144,74.567 47.489058,66.308174 c -0.458983,-1.112474 -2.518133,-0.464766 -1.857,0.743 L 48.542,73.374 43.683,71.209 C 43.885,70.507 44,69.767 44,69 c 0,-4.411 -3.589,-8 -8,-8 -4.411,0 -8,3.589 -8,8 0,4.411 3.589,8 8,8 2.934,0 5.497,-1.592 6.889,-3.953 l 5.793,2.607 -10.219,6.503 c -1.562199,1.282741 -0.324108,2.805508 1.074,1.688 l 11.074,-7.299 11.618,5.205 c 0,0 3.767767,8.690062 4.848,11.635 0.664685,1.812069 2.479894,1.223377 1.846,-0.77 -0.633894,-1.993377 -4.604,-11.051 -4.604,-11.051 0,0 6.631772,-2.536855 12.041,-4.631 1.495064,-0.578804 0.701413,-2.433685 -0.719,-1.868 z M 36,75 c -3.309,0 -6,-2.691 -6,-6 0,-3.309 2.691,-6 6,-6 3.309,0 6,2.691 6,6 0,3.309 -2.691,6 -6,6 z"
           sodipodi:nodetypes="sccccccssssccccccszcsssssss" /></g></g></g></svg>
