<?xml version="1.0" encoding="UTF-8" standalone="no"?>
<svg
   xmlns:dc="http://purl.org/dc/elements/1.1/"
   xmlns:cc="http://creativecommons.org/ns#"
   xmlns:rdf="http://www.w3.org/1999/02/22-rdf-syntax-ns#"
   xmlns:svg="http://www.w3.org/2000/svg"
   xmlns="http://www.w3.org/2000/svg"
   xmlns:sodipodi="http://sodipodi.sourceforge.net/DTD/sodipodi-0.dtd"
   xmlns:inkscape="http://www.inkscape.org/namespaces/inkscape"
   version="1.1"
   viewBox="0 0 78.155161 78.155161"
   preserveAspectRatio="xMinYMin meet"
   xml:space="preserve"
   id="svg2"
   inkscape:version="0.48.4 r9939"
   sodipodi:docname="bmc.svg">
   <metadata
     id="metadata14"><rdf:RDF><cc:Work
         rdf:about=""><dc:format>image/svg+xml</dc:format><dc:type
           rdf:resource="http://purl.org/dc/dcmitype/StillImage" /><dc:title></dc:title></cc:Work></rdf:RDF></metadata><defs
     id="defs12" /><sodipodi:namedview
     pagecolor="#ffffff"
     bordercolor="#666666"
     borderopacity="1"
     objecttolerance="10"
     gridtolerance="10"
     guidetolerance="10"
     inkscape:pageopacity="0"
     inkscape:pageshadow="2"
     inkscape:window-width="1317"
     inkscape:window-height="744"
     id="namedview10"
     showgrid="false"
     inkscape:zoom="1.888"
     inkscape:cx="20.092529"
     inkscape:cy="98.608823"
     inkscape:window-x="49"
     inkscape:window-y="24"
     inkscape:window-maximized="1"
     inkscape:current-layer="svg2"
     fit-margin-top="0"
     fit-margin-left="0"
     fit-margin-right="0"
     fit-margin-bottom="0" /><path
     sodipodi:type="arc"
     style="fill:none;stroke:#333333;stroke-width:0.91806322;stroke-linecap:butt;stroke-linejoin:round;stroke-miterlimit:4;stroke-opacity:1;stroke-dasharray:none"
     id="path4986"
     sodipodi:cx="51.641949"
     sodipodi:cy="39.989407"
     sodipodi:rx="34.957626"
     sodipodi:ry="34.957626"
     d="m 86.599575,39.989407 a 34.957626,34.957626 0 1 1 -69.915253,0 34.957626,34.957626 0 1 1 69.915253,0 z"
     transform="matrix(0.98350078,0,0,0.98350078,-11.712317,-0.2520328)" /><path
     style="fill:#ffffff;fill-opacity:1;stroke:#fa3077;stroke-opacity:1"
     d="m 4.1211765,12.05516 0,49.928012 70.4022345,0 0,-49.928012 z"
     id="path2991-0"
     inkscape:connector-curvature="0"
     sodipodi:nodetypes="ccccc" /><path
     style="fill:#ffffff;fill-opacity:1;stroke:none;stroke-opacity:1"
     d="m 2.9975965,10.661976 0,53.088903 72.5557635,0 0,-53.088903 z"
     id="path2991-6"
     inkscape:connector-curvature="0"
     sodipodi:nodetypes="ccccc" /><path
     style="fill:none;stroke:#fa3077;stroke-width:2;stroke-linecap:butt;stroke-linejoin:round;stroke-miterlimit:4;stroke-opacity:1;stroke-dasharray:none"
     d="m 5.3116905,13.281499 0,47.868115 68.0614415,0 0,-47.868115 z"
     id="path2991"
     inkscape:connector-curvature="0"
     sodipodi:nodetypes="ccccc" /><path
     style="fill:none;stroke:#fa3077;stroke-width:2;stroke-linecap:butt;stroke-linejoin:round;stroke-miterlimit:4;stroke-opacity:1;stroke-dasharray:none"
     d="m 5.6949384,37.943998 68.0527206,0"
     id="path2993"
     inkscape:connector-curvature="0"
     sodipodi:nodetypes="cc" /><path
     style="fill:none;stroke:#fa3077;stroke-width:2;stroke-linecap:butt;stroke-linejoin:round;stroke-miterlimit:4;stroke-opacity:1;stroke-dasharray:none"
     d="m 40.138313,60.409303 0,-47.381274"
     id="path2999"
     inkscape:connector-curvature="0"
     sodipodi:nodetypes="cc" /><path
     sodipodi:type="arc"
     style="fill:#fa3077;fill-opacity:1;stroke:none"
     id="path2994"
     sodipodi:cx="15.261971"
     sodipodi:cy="49.410221"
     sodipodi:rx="0.65542209"
     sodipodi:ry="0.65542209"
     d="m 15.917394,49.410221 a 0.65542209,0.65542209 0 1 1 -1.310845,0 0.65542209,0.65542209 0 1 1 1.310845,0 z"
     transform="matrix(2.1428572,0,0,2.1428572,-19.031236,-54.879841)" /><path
     sodipodi:type="arc"
     style="fill:#fa3077;fill-opacity:1;stroke:none"
     id="path2994-6"
     sodipodi:cx="15.261971"
     sodipodi:cy="49.410221"
     sodipodi:rx="0.65542209"
     sodipodi:ry="0.65542209"
     d="m 15.917394,49.410221 a 0.65542209,0.65542209 0 1 1 -1.310845,0 0.65542209,0.65542209 0 1 1 1.310845,0 z"
     transform="matrix(2.1428572,0,0,2.1428572,16.55425,-51.028971)" /><path
     sodipodi:type="arc"
     style="fill:#fa3077;fill-opacity:1;stroke:none"
     id="path2994-1"
     sodipodi:cx="15.261971"
     sodipodi:cy="49.410221"
     sodipodi:rx="0.65542209"
     sodipodi:ry="0.65542209"
     d="m 15.917394,49.410221 a 0.65542209,0.65542209 0 1 1 -1.310845,0 0.65542209,0.65542209 0 1 1 1.310845,0 z"
     transform="matrix(2.1428572,0,0,2.1428572,30.855098,-55.531089)" /><path
     sodipodi:type="arc"
     style="fill:#fa3077;fill-opacity:1;stroke:none"
     id="path2994-5"
     sodipodi:cx="15.261971"
     sodipodi:cy="49.410221"
     sodipodi:rx="0.65542209"
     sodipodi:ry="0.65542209"
     d="m 15.917394,49.410221 a 0.65542209,0.65542209 0 1 1 -1.310845,0 0.65542209,0.65542209 0 1 1 1.310845,0 z"
     transform="matrix(2.1428572,0,0,2.1428572,25.028826,-58.973886)" /><path
     sodipodi:type="arc"
     style="fill:#fa3077;fill-opacity:1;stroke:none"
     id="path2994-9"
     sodipodi:cx="15.261971"
     sodipodi:cy="49.410221"
     sodipodi:rx="0.65542209"
     sodipodi:ry="0.65542209"
     d="m 15.917394,49.410221 a 0.65542209,0.65542209 0 1 1 -1.310845,0 0.65542209,0.65542209 0 1 1 1.310845,0 z"
     transform="matrix(2.1428572,0,0,2.1428572,32.179251,-84.662446)" /><path
     sodipodi:type="arc"
     style="fill:#fa3077;fill-opacity:1;stroke:none"
     id="path2994-8"
     sodipodi:cx="15.261971"
     sodipodi:cy="49.410221"
     sodipodi:rx="0.65542209"
     sodipodi:ry="0.65542209"
     d="m 15.917394,49.410221 a 0.65542209,0.65542209 0 1 1 -1.310845,0 0.65542209,0.65542209 0 1 1 1.310845,0 z"
     transform="matrix(2.1428572,0,0,2.1428572,0.92924996,-76.4527)" /><path
     sodipodi:type="arc"
     style="fill:#fa3077;fill-opacity:1;stroke:none"
     id="path2994-50"
     sodipodi:cx="15.261971"
     sodipodi:cy="49.410221"
     sodipodi:rx="0.65542209"
     sodipodi:ry="0.65542209"
     d="m 15.917394,49.410221 a 0.65542209,0.65542209 0 1 1 -1.310845,0 0.65542209,0.65542209 0 1 1 1.310845,0 z"
     transform="matrix(2.1428572,0,0,2.1428572,-5.6915129,-74.069225)" /><path
     sodipodi:type="arc"
     style="fill:#fa3077;fill-opacity:1;stroke:none"
     id="path2994-3"
     sodipodi:cx="15.261971"
     sodipodi:cy="49.410221"
     sodipodi:rx="0.65542209"
     sodipodi:ry="0.65542209"
     d="m 15.917394,49.410221 a 0.65542209,0.65542209 0 1 1 -1.310845,0 0.65542209,0.65542209 0 1 1 1.310845,0 z"
     transform="matrix(2.1428572,0,0,2.1428572,-4.3673603,-80.954818)" /><path
     sodipodi:type="arc"
     style="fill:#fa3077;fill-opacity:1;stroke:none"
     id="path2994-64"
     sodipodi:cx="15.261971"
     sodipodi:cy="49.410221"
     sodipodi:rx="0.65542209"
     sodipodi:ry="0.65542209"
     d="m 15.917394,49.410221 a 0.65542209,0.65542209 0 1 1 -1.310845,0 0.65542209,0.65542209 0 1 1 1.310845,0 z"
     transform="matrix(2.1428572,0,0,2.1428572,-2.5135466,-60.033208)" /><path
     sodipodi:type="arc"
     style="fill:#fa3077;fill-opacity:1;stroke:none"
     id="path2994-94"
     sodipodi:cx="15.261971"
     sodipodi:cy="49.410221"
     sodipodi:rx="0.65542209"
     sodipodi:ry="0.65542209"
     d="m 15.917394,49.410221 a 0.65542209,0.65542209 0 1 1 -1.310845,0 0.65542209,0.65542209 0 1 1 1.310845,0 z"
     transform="matrix(2.1428572,0,0,2.1428572,-8.3398183,-52.617954)" /></svg>
