<?xml version="1.0" encoding="UTF-8" standalone="no"?>
<svg
   xmlns:dc="http://purl.org/dc/elements/1.1/"
   xmlns:cc="http://creativecommons.org/ns#"
   xmlns:rdf="http://www.w3.org/1999/02/22-rdf-syntax-ns#"
   xmlns:svg="http://www.w3.org/2000/svg"
   xmlns="http://www.w3.org/2000/svg"
   xmlns:sodipodi="http://sodipodi.sourceforge.net/DTD/sodipodi-0.dtd"
   xmlns:inkscape="http://www.inkscape.org/namespaces/inkscape"
   version="1.1"
   viewBox="0 0 78.155161 78.155161"
   preserveAspectRatio="xMinYMin meet"
   xml:space="preserve"
   id="svg2"
   inkscape:version="0.48.4 r9939"
   sodipodi:docname="ux.svg"
   width="100%"
   height="100%"><metadata
     id="metadata14"><rdf:RDF><cc:Work
         rdf:about=""><dc:format>image/svg+xml</dc:format><dc:type
           rdf:resource="http://purl.org/dc/dcmitype/StillImage" /><dc:title></dc:title></cc:Work></rdf:RDF></metadata><defs
     id="defs12" /><sodipodi:namedview
     pagecolor="#ffffff"
     bordercolor="#666666"
     borderopacity="1"
     objecttolerance="10"
     gridtolerance="10"
     guidetolerance="10"
     inkscape:pageopacity="0"
     inkscape:pageshadow="2"
     inkscape:window-width="1317"
     inkscape:window-height="744"
     id="namedview10"
     showgrid="false"
     inkscape:zoom="5.3400704"
     inkscape:cx="29.770502"
     inkscape:cy="40.521118"
     inkscape:window-x="49"
     inkscape:window-y="24"
     inkscape:window-maximized="1"
     inkscape:current-layer="svg2"
     fit-margin-top="0"
     fit-margin-left="0"
     fit-margin-right="0"
     fit-margin-bottom="0" /><path
     style="fill:none;stroke:#333333;stroke-width:0.90291589000000005;stroke-linecap:butt;stroke-linejoin:round;stroke-miterlimit:4;stroke-opacity:1"
     d="M 20.624517 10.063354 C 25.95595 6.6654832 32.286851 4.6967269 39.07758 4.6967269 C 46.033199 4.6967269 52.506388 6.7622528 57.917233 10.313391 "
     id="path5433" /><path
     style="fill:none;stroke:#333333;stroke-width:0.90291589000000005;stroke-linecap:butt;stroke-linejoin:round;stroke-miterlimit:4;stroke-opacity:1"
     d="M 20.660176 68.114501 C 16.490363 65.464159 12.93018 61.940337 10.237163 57.80057 "
     id="path5429" /><path
     style="fill:none;stroke:#333333;stroke-width:0.90291589000000005;stroke-linecap:butt;stroke-linejoin:round;stroke-miterlimit:4;stroke-opacity:1"
     d="M 24.804953 70.365139 C 23.367478 69.708336 21.983144 68.955381 20.660176 68.114501 "
     id="path5427" /><path
     style="fill:none;stroke:#333333;stroke-width:0.90291589000000005;stroke-linecap:butt;stroke-linejoin:round;stroke-miterlimit:4;stroke-opacity:1"
     d="M 54.627838 69.749053 C 49.958095 72.121288 44.673991 73.458432 39.07758 73.458432 C 33.985663 73.458432 29.152284 72.351498 24.804953 70.365139 "
     id="path4986" /><g
     inkscape:groupmode="layer"
     id="layer1"
     inkscape:label="Fundo"
     style="display:inline" /><g
     inkscape:groupmode="layer"
     id="layer2"
     inkscape:label="Icones" /><path
     inkscape:connector-curvature="0"
     d="m 73.704828,66.945808 h -51.01347 v -1.758116 h 5.784198 V 53.638633 H 7.1645616 c -2.929898,0 -5.314781,-2.384003 -5.314781,-5.314779 V 17.272023 c 0,-2.9299 2.384004,-5.314783 5.314781,-5.314783 H 58.178034 c 2.930777,0 5.314782,2.384005 5.314782,5.314783 v 3.002862 h 2.448175 c 2.319833,0 4.20629,1.886457 4.20629,4.206288 v 9.100885 h 3.556667 c 1.70713,0 3.09692,1.445171 3.09692,3.220868 v 26.923772 c 8.8e-4,1.774818 -1.388911,3.21911 -3.09604,3.21911 z M 58.178034,35.340173 c -0.738409,0 -1.338805,0.655778 -1.338805,1.462753 v 26.923772 c 0,0.806096 0.601274,1.461873 1.338805,1.461873 h 15.525914 c 0.738409,0 1.338805,-0.655777 1.338805,-1.461873 V 36.802046 c 0,-0.806095 -0.601275,-1.462751 -1.338805,-1.462751 H 58.178034 z M 42.651239,22.032999 c -1.348475,0 -2.446416,1.098822 -2.446416,2.448174 v 38.259222 c 0,1.349354 1.097941,2.447297 2.446416,2.447297 H 55.41955 c -0.216248,-0.43865 -0.338436,-0.935317 -0.338436,-1.461873 v -2.009525 l -10.099494,-0.0018 c -1.953265,0 -3.540843,-1.588457 -3.540843,-3.539086 V 27.567545 c 0,-1.952386 1.588457,-3.540843 3.540843,-3.540843 h 18.629868 c 1.953267,0 3.541724,1.588457 3.541724,3.540843 v 6.014513 h 1.235954 v -9.100885 c 0,-1.350231 -1.097943,-2.448174 -2.448175,-2.448174 H 42.651239 z m -5.720907,43.154693 h 2.30489 c -0.49491,-0.69006 -0.787636,-1.534835 -0.787636,-2.447297 v -9.101762 h -1.517254 v 11.549059 z m -6.69666,0 h 4.938546 V 53.638633 H 30.233672 V 65.187692 z M 44.98162,25.784818 c -0.982786,0 -1.782728,0.799941 -1.782728,1.782727 v 30.607904 c 0,0.981909 0.799942,1.780972 1.782728,1.780972 l 10.099494,0.0018 V 36.802095 c 0,-1.775697 1.38979,-3.220867 3.09692,-3.220867 h 7.217062 v -6.013634 c 0,-0.982786 -0.799943,-1.782727 -1.783608,-1.782727 H 44.98162 z M 3.6078956,43.656938 v 4.666916 c 0,1.960296 1.595489,3.556665 3.556666,3.556665 H 38.446707 V 43.657817 H 3.6078956 z m 0,-1.758115 H 38.446707 v -17.41765 c 0,-2.319831 1.886457,-4.206288 4.204532,-4.206288 h 19.083462 v -3.002862 c 0,-1.961178 -1.59549,-3.556667 -3.556667,-3.556667 H 7.1645616 c -1.961177,0 -3.556666,1.595489 -3.556666,3.556667 v 24.6268 z M 71.764748,61.886831 H 60.118115 c -1.402098,0 -2.542236,-1.182332 -2.542236,-2.635415 v -20.19195 c 0,-1.453082 1.140138,-2.635415 2.542236,-2.635415 h 11.645753 c 1.402097,0 2.542235,1.182333 2.542235,2.635415 v 20.19283 c 0,1.453081 -1.140138,2.634535 -2.541355,2.634535 z M 60.118115,38.182167 c -0.431618,0 -0.784121,0.393817 -0.784121,0.877299 v 20.19283 c 0,0.48436 0.351622,0.877299 0.784121,0.877299 h 11.645753 c 0.431617,0 0.784119,-0.392939 0.784119,-0.877299 v -20.19283 c 0,-0.483482 -0.351622,-0.877299 -0.784119,-0.877299 H 60.118115 z"
     id="path4619"
     style="fill:#fa3077;fill-opacity:1;stroke:#fa3077;stroke-width:0.27900001;stroke-opacity:1;stroke-miterlimit:4;stroke-dasharray:none" /></svg>