<?xml version="1.0" encoding="UTF-8" standalone="no"?>
<svg
   xmlns:dc="http://purl.org/dc/elements/1.1/"
   xmlns:cc="http://creativecommons.org/ns#"
   xmlns:rdf="http://www.w3.org/1999/02/22-rdf-syntax-ns#"
   xmlns:svg="http://www.w3.org/2000/svg"
   xmlns="http://www.w3.org/2000/svg"
   xmlns:sodipodi="http://sodipodi.sourceforge.net/DTD/sodipodi-0.dtd"
   xmlns:inkscape="http://www.inkscape.org/namespaces/inkscape"
   version="1.1"
   viewBox="0 0 78.155161 78.155161"
   preserveAspectRatio="xMinYMin meet"
   xml:space="preserve"
   id="svg2"
   inkscape:version="0.48.4 r9939"
   sodipodi:docname="type.svg">
   <metadata
     id="metadata14"><rdf:RDF><cc:Work
         rdf:about=""><dc:format>image/svg+xml</dc:format><dc:type
           rdf:resource="http://purl.org/dc/dcmitype/StillImage" /><dc:title /></cc:Work></rdf:RDF></metadata><defs
     id="defs12" /><sodipodi:namedview
     pagecolor="#ffffff"
     bordercolor="#666666"
     borderopacity="1"
     objecttolerance="10"
     gridtolerance="10"
     guidetolerance="10"
     inkscape:pageopacity="0"
     inkscape:pageshadow="2"
     inkscape:window-width="1317"
     inkscape:window-height="744"
     id="namedview10"
     showgrid="false"
     inkscape:zoom="2.6700352"
     inkscape:cx="16.61835"
     inkscape:cy="14.296646"
     inkscape:window-x="49"
     inkscape:window-y="24"
     inkscape:window-maximized="1"
     inkscape:current-layer="layer2"
     fit-margin-top="0"
     fit-margin-left="0"
     fit-margin-right="0"
     fit-margin-bottom="0" /><path
     sodipodi:type="arc"
     style="fill:none;stroke:#333333;stroke-width:0.91806322;stroke-linecap:butt;stroke-linejoin:round;stroke-miterlimit:4;stroke-opacity:1;stroke-dasharray:none"
     id="path4986"
     sodipodi:cx="51.641949"
     sodipodi:cy="39.989407"
     sodipodi:rx="34.957626"
     sodipodi:ry="34.957626"
     d="m 86.599575,39.989407 a 34.957626,34.957626 0 1 1 -69.915253,0 34.957626,34.957626 0 1 1 69.915253,0 z"
     transform="matrix(0.9835008,0,0,0.9835008,-11.712317,-0.25203286)" /><g
     inkscape:groupmode="layer"
     id="layer1"
     inkscape:label="Fundo"
     style="display:inline" /><path
     sodipodi:nodetypes="ccccccccccccc"
     inkscape:connector-curvature="0"
     id="path6261-9"
     d="m 9.3621492,75.534359 0,-72.4297546 52.1315768,0 7.404538,15.7017616 1.771372,5.604186 -2.908511,27.565117 0.966014,9.88349 0.818916,13.6752 -18.697627,0.0029 -0.48318,-6.345974 -19.466778,-0.585718 -0.187264,6.928748 z"
     style="fill:#ffffff;fill-opacity:1;stroke:none" /><g
     inkscape:groupmode="layer"
     id="layer2"
     inkscape:label="Icones"><path
       style="fill:#fa3077;fill-opacity:1;stroke:#000000;stroke-width:1.66257501;stroke-miterlimit:10"
       inkscape:connector-curvature="0"
       stroke-miterlimit="10"
       d="M 60.542002,51.21687"
       id="path4" /><path
       inkscape:connector-curvature="0"
       d="m 60.706649,42.886157 c 1.119539,0.973425 2.044939,2.13893 2.751511,3.463584 0.712069,1.331516 1.23822,2.824925 1.566133,4.432895 0.329274,1.623062 0.559081,3.272876 0.680501,4.89937 0.06111,1.042024 0.122055,2.261721 0.183842,3.667323 0.05895,1.410403 0.167385,2.872943 0.323114,4.343027 0.154432,1.481748 0.40473,2.90793 0.745661,4.237387 0.08502,0.333392 0.185917,0.651008 0.291546,0.961762 h 0.88769 c -0.139986,-0.372495 -0.268913,-0.757336 -0.372498,-1.168248 -0.332031,-1.290355 -0.576235,-2.674689 -0.725104,-4.118021 -0.153603,-1.454308 -0.261358,-2.89764 -0.320357,-4.29295 -0.06177,-1.409718 -0.122722,-2.634217 -0.184523,-3.684475 -0.123549,-1.668337 -0.358102,-3.35451 -0.696293,-5.010499 -0.343671,-1.687546 -0.897968,-3.254357 -1.647069,-4.658586 -0.753914,-1.41452 -1.742417,-2.658915 -2.94017,-3.700252 -0.688737,-0.598187 -1.496154,-1.104452 -2.395485,-1.529767 v 0.918547 c 0.689418,0.356715 1.309557,0.767626 1.851501,1.238903 z"
       id="path8"
       style="fill:#fa3077;fill-opacity:1;stroke-width:1.15600003;stroke-miterlimit:4;stroke-dasharray:none;stroke:#fa3077;stroke-opacity:1" /><path
       inkscape:connector-curvature="0"
       d="m 55.54042,7.4168372 c 1.70469,0.6873654 3.239271,1.572983 4.585179,2.6376448 V 9.6524903 h 0.810157 C 59.455393,8.4286776 57.758242,7.4140921 55.85186,6.6450928 54.694589,6.1799888 53.461172,5.8280748 52.159155,5.5859183 v 0.848574 c 1.190199,0.2311814 2.321403,0.5563424 3.381265,0.9823449 z"
       id="path10"
       style="fill:#fa3077;fill-opacity:1;stroke-width:1.15600003;stroke-miterlimit:4;stroke-dasharray:none;stroke:#fa3077;stroke-opacity:1" /><path
       inkscape:connector-curvature="0"
       d="m 64.153757,33.50176 c -1.185397,2.056609 -2.962123,3.758561 -5.298609,5.082529 v 0.947358 c 2.667819,-1.427555 4.690143,-3.307177 6.017536,-5.614861 1.142869,-1.981149 1.885791,-4.242186 2.241833,-6.739205 h -0.839666 c -0.347108,2.345413 -1.05094,4.466507 -2.121094,6.324179 z"
       id="path12"
       style="fill:#fa3077;fill-opacity:1;stroke-width:1.15600003;stroke-miterlimit:4;stroke-dasharray:none;stroke:#fa3077;stroke-opacity:1" /><path
       style="fill:#fa3077;fill-opacity:1;stroke-width:1.15600003;stroke-miterlimit:4;stroke:#fa3077;stroke-opacity:1;stroke-dasharray:none"
       d="m 14.683986,5.1928444 32.903019,0 0,0.8307387 -32.903019,0 z"
       id="rect14" /><path
       style="fill:#fa3077;fill-opacity:1;stroke-width:1.15600003;stroke-miterlimit:4;stroke:#fa3077;stroke-opacity:1;stroke-dasharray:none"
       d="m 11.981862,7.8942852 0.831425,0 0,60.9965288 -0.831425,0 z"
       id="rect16" /><path
       inkscape:connector-curvature="0"
       d="M 53.404234,63.712251 C 53.221074,60.850284 52.941873,58.061031 52.575553,55.415154 52.368383,53.98417 52.059,52.71028 51.659752,51.581132 H 50.77482 c 0.431489,1.139437 0.760767,2.451744 0.976855,3.949954 0.364262,2.622556 0.640718,5.392598 0.821819,8.233987 0.118679,1.865216 0.369753,3.578145 0.747735,5.125746 h 0.865038 C 53.791821,67.338415 53.524283,65.61314 53.404234,63.712251 z"
       id="path18"
       style="fill:#fa3077;fill-opacity:1;stroke-width:1.15600003;stroke-miterlimit:4;stroke-dasharray:none;stroke:#fa3077;stroke-opacity:1" /><path
       style="fill:#fa3077;fill-opacity:1;stroke-width:1.15600003;stroke-miterlimit:4;stroke:#fa3077;stroke-opacity:1;stroke-dasharray:none"
       d="m 26.399399,47.841095 0.831425,0 0,21.049726 -0.831425,0 z"
       id="rect20" /><path
       inkscape:connector-curvature="0"
       d="M 48.574837,47.008296 C 46.887978,45.770077 44.428003,45.139649 41.23333,45.139649 H 29.100839 v 0.83211 h 12.131805 c 2.709676,0 4.832826,0.467849 6.354361,1.382963 v -0.346426 h 0.987832 z"
       id="path22"
       style="fill:#fa3077;fill-opacity:1;stroke-width:1.15600003;stroke-miterlimit:4;stroke-dasharray:none;stroke:#fa3077;stroke-opacity:1" /><path
       style="fill:#fa3077;fill-opacity:1;stroke-width:1.15600003;stroke-miterlimit:4;stroke:#fa3077;stroke-opacity:1;stroke-dasharray:none"
       d="m 14.683986,70.762207 9.845386,0 0,0.831425 -9.845386,0 z"
       id="rect24" /><path
       style="fill:#fa3077;fill-opacity:1;stroke-width:1.15600003;stroke-miterlimit:4;stroke:#fa3077;stroke-opacity:1;stroke-dasharray:none"
       d="m 56.73061,70.762207 9.859106,0 0,0.831425 -9.859106,0 z"
       id="rect26" /><path
       inkscape:connector-curvature="0"
       d="m 49.776698,19.282476 c 0.919232,0.80124 1.562694,1.918725 1.940677,3.32364 h 0.866411 c -0.410226,-1.671081 -1.164132,-2.99505 -2.26035,-3.949954 -0.843774,-0.734013 -1.900204,-1.287609 -3.151457,-1.665593 v 0.878072 c 1.028305,0.339567 1.905006,0.806043 2.604719,1.413835 z"
       id="path28"
       style="fill:#fa3077;fill-opacity:1;stroke:#fa3077;stroke-opacity:1;stroke-width:1.15600003;stroke-miterlimit:4;stroke-dasharray:none" /><path
       style="fill:#fa3077;fill-opacity:1;stroke-width:1.15600003;stroke-miterlimit:4;stroke:#fa3077;stroke-opacity:1;stroke-dasharray:none"
       d="m 29.100836,34.853855 13.497618,0 0,0.830739 -13.497618,0 z"
       id="rect30" /><path
       style="fill:#fa3077;fill-opacity:1;stroke-width:1.15600003;stroke-miterlimit:4;stroke:#fa3077;stroke-opacity:1;stroke-dasharray:none"
       d="m 29.100836,16.395123 13.497618,0 0,0.830738 -13.497618,0 z"
       id="rect32" /><path
       style="fill:#fa3077;fill-opacity:1;stroke-width:1.15600003;stroke-miterlimit:4;stroke:#fa3077;stroke-opacity:1;stroke-dasharray:none"
       d="m 26.399399,19.097254 0.831425,0 0,13.831697 -0.831425,0 z"
       id="rect34" /><path
       inkscape:connector-curvature="0"
       d="m 49.772581,32.755397 c -0.698341,0.620826 -1.57367,1.097591 -2.600602,1.443332 v 0.880131 c 1.253997,-0.385529 2.310427,-0.952161 3.154886,-1.701952 1.512617,-1.346606 2.375598,-3.429283 2.573165,-6.199327 h -0.836915 c -0.190021,2.514168 -0.954903,4.390362 -2.290534,5.577816 z"
       id="path36"
       style="fill:#fa3077;fill-opacity:1;stroke-width:1.15600003;stroke-miterlimit:4;stroke-dasharray:none;stroke:#fa3077;stroke-opacity:1" /><rect
       x="10.942575"
       y="4.1528754"
       width="2.9093008"
       height="2.9106727"
       id="rect38"
       style="fill:#fa3077;fill-opacity:1;stroke:#ffffff;stroke-opacity:1;stroke-width:0.50000001;stroke-miterlimit:1.79999995;stroke-dasharray:none" /><rect
       x="48.419113"
       y="4.1528754"
       width="2.9079285"
       height="2.9106727"
       id="rect40"
       style="fill:#fa3077;fill-opacity:1;stroke:#ffffff;stroke-opacity:1;stroke-width:0.50000001;stroke-miterlimit:1.79999995;stroke-dasharray:none" /><rect
       x="25.359428"
       y="15.357903"
       width="2.9106727"
       height="2.9093008"
       id="rect42"
       style="fill:#fa3077;fill-opacity:1;stroke:#ffffff;stroke-opacity:1;stroke-width:0.50000001;stroke-miterlimit:1.79999995;stroke-dasharray:none" /><rect
       x="25.359428"
       y="33.759693"
       width="2.9106727"
       height="2.9106727"
       id="rect44"
       style="fill:#fa3077;fill-opacity:1;stroke:#ffffff;stroke-opacity:1;stroke-width:0.50000001;stroke-miterlimit:1.79999995;stroke-dasharray:none" /><rect
       x="25.359428"
       y="44.101055"
       width="2.9106727"
       height="2.9072425"
       id="rect46"
       style="fill:#fa3077;fill-opacity:1;stroke:#ffffff;stroke-opacity:1;stroke-width:0.50000001;stroke-miterlimit:1.79999995;stroke-dasharray:none" /><rect
       x="48.419113"
       y="47.841095"
       width="2.9079285"
       height="2.9079285"
       id="rect48"
       style="fill:#fa3077;fill-opacity:1;stroke:#ffffff;stroke-opacity:1;stroke-width:0.50000001;stroke-miterlimit:1.79999995;stroke-dasharray:none" /><rect
       x="25.359428"
       y="69.722244"
       width="2.9106727"
       height="2.9106727"
       id="rect50"
       style="fill:#fa3077;fill-opacity:1;stroke:#ffffff;stroke-opacity:1;stroke-width:0.50000001;stroke-miterlimit:1.79999995;stroke-dasharray:none" /><rect
       x="10.942575"
       y="69.722244"
       width="2.9093008"
       height="2.9106727"
       id="rect52"
       style="fill:#fa3077;fill-opacity:1;stroke:#ffffff;stroke-opacity:1;stroke-width:0.50000001;stroke-miterlimit:1.79999995;stroke-dasharray:none" /><rect
       x="52.990578"
       y="69.722244"
       width="2.9086144"
       height="2.9106727"
       id="rect54"
       style="fill:#fa3077;fill-opacity:1;stroke:#ffffff;stroke-opacity:1;stroke-width:0.50000001;stroke-miterlimit:1.79999995;stroke-dasharray:none" /><rect
       x="67.419769"
       y="69.722244"
       width="2.9099867"
       height="2.9106727"
       id="rect56"
       style="fill:#fa3077;fill-opacity:1;stroke:#ffffff;stroke-opacity:1;stroke-width:0.50000001;stroke-miterlimit:1.79999995;stroke-dasharray:none" /><rect
       x="55.115105"
       y="38.866234"
       width="2.9079285"
       height="2.9086144"
       id="rect58"
       style="fill:#fa3077;fill-opacity:1" /><rect
       x="51.121933"
       y="23.438225"
       width="2.9079285"
       height="2.9086144"
       id="rect60"
       style="fill:#fa3077;fill-opacity:1;stroke:#ffffff;stroke-opacity:1;stroke-width:0.50000001;stroke-miterlimit:1.79999995;stroke-dasharray:none" /><rect
       x="43.431248"
       y="15.357903"
       width="2.9079285"
       height="2.9093008"
       id="rect62"
       style="fill:#fa3077;fill-opacity:1;stroke:#ffffff;stroke-opacity:1;stroke-width:0.50000001;stroke-miterlimit:1.79999995;stroke-dasharray:none" /><rect
       x="43.431248"
       y="33.759693"
       width="2.9079285"
       height="2.9106727"
       id="rect64"
       style="fill:#fa3077;fill-opacity:1;stroke:#ffffff;stroke-opacity:1;stroke-width:0.50000001;stroke-miterlimit:1.79999995;stroke-dasharray:none" /><rect
       x="60.957031"
       y="10.483915"
       width="2.9099867"
       height="2.9086144"
       id="rect66"
       style="fill:#fa3077;fill-opacity:1;stroke:#ffffff;stroke-opacity:1;stroke-width:0.50000001;stroke-miterlimit:1.79999995;stroke-dasharray:none" /><path
       inkscape:connector-curvature="0"
       d="M 68.459744,26.346843 V 23.438226 H 67.346383 V 6.7623983 c 0.604346,-0.1797303 1.047503,-0.7333289 1.047503,-1.395999 0,-0.8087867 -0.655808,-1.4632242 -1.463908,-1.4632242 -0.809477,0 -1.463226,0.6544375 -1.463226,1.4632242 0,0.6626701 0.442474,1.2162687 1.04752,1.395999 V 17.957135 c -0.151611,-0.488428 -0.323114,-0.96931 -0.515191,-1.439901 -0.360826,-0.883561 -0.80878,-1.717043 -1.301322,-2.521029 v 0.228436 h -0.83075 c 0.52411,0.826622 0.98784,1.690976 1.362397,2.606777 0.734006,1.800048 1.156586,3.737982 1.269073,5.775385 h 0.0166 v 0.832109 h -0.963146 v 2.908617 h 0.963146 v 16.581847 c -0.605045,0.178357 -1.04752,0.73264 -1.04752,1.395311 0,0.808101 0.655808,1.463226 1.463227,1.463226 0.809477,0 1.463908,-0.655125 1.463908,-1.463226 0,-0.662671 -0.443157,-1.216954 -1.047504,-1.395997 V 26.346843 h 1.113362 z"
       id="path68"
       style="fill:#fa3077;fill-opacity:1;stroke-width:1.15600003;stroke-miterlimit:4;stroke-dasharray:none;stroke:#fa3077;stroke-opacity:1" /></g></svg>
