<svg xmlns:svg="http://www.w3.org/2000/svg" xmlns="http://www.w3.org/2000/svg" version="1.1" preserveAspectRatio="xMinYMin meet" viewBox="0 0 78.16 78.16" id="svg2">
  <metadata id="metadata14"/>
  <defs id="defs12"/>
  <path id="path4986" d="m86.6 39.99a34.96 34.96 0 1 1-69.92 0 34.96 34.96 0 1 1 69.92 0z" transform="matrix(0.9835008,0,0,0.9835008,-11.712317,-0.25203286)" style="fill:none;stroke-linejoin:round;stroke-miterlimit:4;stroke-width:0.92;stroke:#333"/>
  <g id="layer1" display="inline"/>
  <path id="path6261-9" d="m2.81 66.55 0-55.76 72.92 0 0 55.76z" fill="#fff"/>
  <g id="g6302" transform="matrix(0.67280148,0,0,0.67280148,-22.003737,-44.799694)">
    <g id="g6331" style="stroke-miterlimit:4;stroke-width:2.78;stroke:#fa3077">
      <path d="m38.93 161.97 0-75.08 104.08 0 0 75.08zM48.46 161.05l0-54.82 51.91 0 0 55.61M48.46 161.05l0-54.82 51.91 0 0 55.61M48.46 161.05l0-54.82 51.91 0 0 55.61M48.46 161.05l0-54.82 51.91 0 0 55.61M48.46 161.05l0-54.82 51.91 0 0 55.61M48.46 161.05l0-54.82 51.91 0 0 55.61M48.46 161.05l0-54.82 51.91 0 0 55.61M48.46 161.05l0-54.82 51.91 0 0 55.61M48.46 161.05l0-54.82 51.91 0 0 55.61M48.46 161.05l0-54.82 51.91 0 0 55.61" id="path6261" style="fill:none;stroke-linejoin:round;stroke-miterlimit:4;stroke-width:2.78;stroke:#fa3077"/>
      <path d="m48.46 161.05 0-54.82 51.91 0 0 55.61" id="path6263" style="fill:none;stroke-linejoin:round;stroke-miterlimit:4;stroke-width:2.78;stroke:#fa3077"/>
      <path d="m108.71 106.23 0 23.16 25.69 0 0-23.16z" id="path6265" style="fill:#fa3077;stroke-linejoin:round;stroke-miterlimit:4;stroke-width:2.78;stroke:#fa3077"/>
      <path d="m108.71 162.11 0-24.03 25.69 0 0 24.3M38.93 96.96l104.34 0M38.93 96.96l104.34 0M38.93 96.96l104.34 0M38.93 96.96l104.34 0M38.93 96.96l104.34 0M38.93 96.96l104.34 0M38.93 96.96l104.34 0M38.93 96.96l104.34 0M38.93 96.96l104.34 0M38.93 96.96l104.34 0" id="path6267" style="fill:none;stroke-linejoin:round;stroke-miterlimit:4;stroke-width:2.78;stroke:#fa3077"/>
      <path d="m38.93 96.96 104.34 0" id="path6269" style="fill:none;stroke-linejoin:round;stroke-miterlimit:4;stroke-width:2.78;stroke:#fa3077"/>
      <path d="m65.94 91.79 68.59 0" id="path6271" style="fill:none;stroke-linecap:round;stroke-linejoin:round;stroke-miterlimit:4;stroke-width:2.78;stroke:#fa3077"/>
      <path id="path6275" d="m46.61 92.46c0 0.73-0.59 1.32-1.32 1.32-0.73 0-1.32-0.59-1.32-1.32 0-0.73 0.59-1.32 1.32-1.32 0.73 0 1.32 0.59 1.32 1.32zM46.61 92.46 46.61 92.46 46.61 92.46 46.61 92.46 46.61 92.46 46.61 92.46 46.61 92.46 46.61 92.46 46.61 92.46 46.61 92.46" transform="matrix(0.67770887,0,0,0.67770887,14.501651,29.135675)" style="fill:#fa3077;stroke-linecap:round;stroke-linejoin:round;stroke-miterlimit:4;stroke-width:4.11;stroke:#fa3077"/>
      <path id="path6275-4" d="m46.61 92.46c0 0.73-0.59 1.32-1.32 1.32-0.73 0-1.32-0.59-1.32-1.32 0-0.73 0.59-1.32 1.32-1.32 0.73 0 1.32 0.59 1.32 1.32z" transform="matrix(0.67770887,0,0,0.67770887,20.289138,29.135675)" style="fill:#fa3077;stroke-linecap:round;stroke-linejoin:round;stroke-miterlimit:4;stroke-width:4.11;stroke:#fa3077"/>
      <path id="path6275-6" d="m46.61 92.46c0 0.73-0.59 1.32-1.32 1.32-0.73 0-1.32-0.59-1.32-1.32 0-0.73 0.59-1.32 1.32-1.32 0.73 0 1.32 0.59 1.32 1.32z" transform="matrix(0.67770887,0,0,0.67770887,25.784372,29.135675)" style="fill:#fa3077;stroke-linecap:round;stroke-linejoin:round;stroke-miterlimit:4;stroke-width:4.11;stroke:#fa3077"/>
    </g>
  </g>
</svg>