<svg xmlns="http://www.w3.org/2000/svg" xmlns:svg="http://www.w3.org/2000/svg" xmlns:xlink="http://www.w3.org/1999/xlink" width="100%" height="100%" viewBox="-0.0229358 0 415.046 300" preserveAspectRatio="xMidYMid meet" zoomAndPan="disable" transform=""><defs id="svgEditorDefs"><line id="svgEditorLineDefs" stroke="black" style="fill: none; vector-effect: non-scaling-stroke; stroke-width: 1px; stroke-linecap: round; stroke-linejoin: round;"/><polygon id="svgEditorPolygonDefs" stroke="black" fill="black" style="stroke-width: 0px; vector-effect: non-scaling-stroke;"/></defs><rect id="svgEditorBackground" x="0" y="0" width="415" height="300" style="fill: none; stroke: none;"/><polyline stroke="red" id="e7_polyline" style="fill: none; stroke-width: 4.86px; vector-effect: non-scaling-stroke; stroke-linecap: round; stroke-linejoin: round;" points="54.1304 93.163 78.1884 160.525 101.645 73.3152 126.906 73.3152 151.565 82.337 175.022 50.4601 200.283 138.272 224.341 148.496 248.399 49.8587 271.855 61.8877 295.913 60.0833 345.833 81.7355 370.493 48.6558"/><polyline stroke="red" id="e8_polyline" style="fill: none; stroke-linecap: round; stroke-linejoin: round; stroke-width: 4.86px; vector-effect: non-scaling-stroke;" points="54.1304 60.0833 76.3841 70.308 102.848 160.525 126.304 147.895 149.761 148.496 175.022 81.1341 198.478 49.2572 223.138 59.4819 248.399 136.467 272.457 149.098 296.514 126.844 320.572 149.699 345.232 126.243 370.493 160.525"/><polyline stroke="black" stroke-width="0.6014492753623188" id="e9_polyline" style="fill: none;" points="53.529 162.33"/><line id="e10_line" x1="54.73187631800556" y1="162.329699087834" x2="54.73187631800556" y2="58.88044219086135" stroke="black" style="stroke-linecap: round; stroke-linejoin: round; stroke-width: 1px; vector-effect: non-scaling-stroke; fill: none;" transform=""/><line x1="78.1884" y1="162.33" x2="78.1884" y2="75.7203" stroke="black" style="stroke-linecap: round; stroke-linejoin: round; stroke-width: 1px; vector-effect: non-scaling-stroke; fill: none;" transform="" id="e12_line"/><line x1="102.84777069091797" y1="161.12709045410156" x2="102.84777069091797" y2="74.51740264892578" stroke="black" style="stroke-linecap: round; stroke-linejoin: round; stroke-width: 1px; vector-effect: non-scaling-stroke; fill: none;" transform="" id="e13_line"/><line x1="126.906" y1="162.225" x2="126.906" y2="73.916" stroke="black" style="stroke-linecap: round; stroke-linejoin: round; stroke-width: 1px; vector-effect: non-scaling-stroke; fill: none;" transform="" id="e14_line"/><line x1="150.964" y1="162.332" x2="150.964" y2="81.1329" stroke="black" style="stroke-linecap: round; stroke-linejoin: round; stroke-width: 1px; vector-effect: non-scaling-stroke; fill: none;" transform="" id="e15_line"/><line x1="175.022" y1="162.912" x2="175.022" y2="52.8653" stroke="black" style="stroke-linecap: round; stroke-linejoin: round; stroke-width: 1px; vector-effect: non-scaling-stroke; fill: none;" transform="" id="e16_line"/><line x1="199.682" y1="163.265" x2="199.682" y2="50.4595" stroke="black" style="stroke-linecap: round; stroke-linejoin: round; stroke-width: 1px; vector-effect: non-scaling-stroke; fill: none;" transform="" id="e17_line"/><line x1="222.312" y1="162.524" x2="223.138" y2="61.2856" stroke="black" style="stroke-linecap: round; stroke-linejoin: round; stroke-width: 1px; vector-effect: non-scaling-stroke; fill: none;" transform="" id="e18_line"/><line x1="247.471" y1="163.092" x2="247.196" y2="58.2783" stroke="black" style="stroke-linecap: round; stroke-linejoin: round; stroke-width: 1px; vector-effect: non-scaling-stroke; fill: none;" transform="" id="e19_line"/><line x1="272.182" y1="163.359" x2="272.457" y2="61.887" stroke="black" style="stroke-linecap: round; stroke-linejoin: round; stroke-width: 1px; vector-effect: non-scaling-stroke; fill: none;" transform="" id="e20_line"/><line x1="296.189" y1="162.361" x2="295.914" y2="59.4812" stroke="black" style="stroke-linecap: round; stroke-linejoin: round; stroke-width: 1px; vector-effect: non-scaling-stroke; fill: none;" transform="" id="e21_line"/><line x1="320.075" y1="162.712" x2="321.175" y2="73.3145" stroke="black" style="stroke-linecap: round; stroke-linejoin: round; stroke-width: 1px; vector-effect: non-scaling-stroke; fill: none;" transform="" id="e22_line"/><line x1="345.834" y1="162.318" x2="345.834" y2="81.7348" stroke="black" style="stroke-linecap: round; stroke-linejoin: round; stroke-width: 1px; vector-effect: non-scaling-stroke; fill: none;" transform="" id="e23_line"/><line x1="369.892" y1="161.583" x2="369.892" y2="51.0609" stroke="black" style="stroke-linecap: round; stroke-linejoin: round; stroke-width: 1px; vector-effect: non-scaling-stroke; fill: none;" transform="" id="e24_line"/><rect x="53.4176" y="171.966" stroke="black" id="e26_rectangle" style="stroke-width: 0px; vector-effect: non-scaling-stroke;" width="25.3315" height="6.6082" fill="black" rx="0" transform="matrix(0.721926 -0.69197 0.69197 0.721926 -119.539 97.551)" ry="0"/><rect x="57.4412" y="187.374" stroke="black" style="stroke-width: 0px; vector-effect: non-scaling-stroke;" width="38.1238" height="6.84058" fill="black" rx="0" transform="matrix(0.803541 -0.789426 0.789426 0.803541 -145.05 92.3067)" ry="0" id="e28_rectangle"/><rect x="86.44752502441406" y="205.15101623535156" stroke="black" style="stroke-width: 0px; vector-effect: non-scaling-stroke;" width="25.3315" height="6.6082" fill="black" rx="0" transform="matrix(0.721926 -0.69197 0.69197 0.721926 -119.539 97.551)" ry="0" id="e29_rectangle"/><rect x="105.48067474365234" y="221.10595703125" stroke="black" style="stroke-width: 0px; vector-effect: non-scaling-stroke;" width="25.3315" height="6.6082" fill="black" rx="0" transform="matrix(0.721926 -0.69197 0.69197 0.721926 -119.539 97.551)" ry="0" id="e30_rectangle"/><rect x="122.19441223144531" y="237.8889923095703" stroke="black" style="stroke-width: 0px; vector-effect: non-scaling-stroke;" width="25.3315" height="6.6082" fill="black" rx="0" transform="matrix(0.721926 -0.69197 0.69197 0.721926 -119.539 97.551)" ry="0" id="e31_rectangle"/><rect x="156.4005126953125" y="271.4383544921875" stroke="black" style="stroke-width: 0px; vector-effect: non-scaling-stroke;" width="25.3315" height="6.6082" fill="black" rx="0" transform="matrix(0.721926 -0.69197 0.69197 0.721926 -119.539 97.551)" ry="0" id="e33_rectangle"/><rect x="192.54483032226562" y="304.5566711425781" stroke="black" style="stroke-width: 0px; vector-effect: non-scaling-stroke;" width="25.3315" height="6.6082" fill="black" rx="0" transform="matrix(0.721926 -0.69197 0.69197 0.721926 -119.539 97.551)" ry="0" id="e35_rectangle"/><rect x="209.6560821533203" y="321.7205505371094" stroke="black" style="stroke-width: 0px; vector-effect: non-scaling-stroke;" width="25.3315" height="6.6082" fill="black" rx="0" transform="matrix(0.721926 -0.69197 0.69197 0.721926 -119.539 97.551)" ry="0" id="e36_rectangle"/><rect x="227.5294647216797" y="338.0891418457031" stroke="black" style="stroke-width: 0px; vector-effect: non-scaling-stroke;" width="25.3315" height="6.6082" fill="black" rx="0" transform="matrix(0.721926 -0.69197 0.69197 0.721926 -119.539 97.551)" ry="0" id="e37_rectangle"/><rect x="261.3710021972656" y="372.81451416015625" stroke="black" style="stroke-width: 0px; vector-effect: non-scaling-stroke;" width="25.3315" height="6.6082" fill="black" rx="0" transform="matrix(0.721926 -0.69197 0.69197 0.721926 -119.539 97.551)" ry="0" id="e39_rectangle"/><rect x="279.6420593261719" y="389.5643005371094" stroke="black" style="stroke-width: 0px; vector-effect: non-scaling-stroke;" width="25.3315" height="6.6082" fill="black" rx="0" transform="matrix(0.721926 -0.69197 0.69197 0.721926 -119.539 97.551)" ry="0" id="e40_rectangle"/><rect x="117.42947387695312" y="246.99388122558594" stroke="black" style="stroke-width: 0px; vector-effect: non-scaling-stroke;" width="38.1238" height="6.84058" fill="black" rx="0" transform="matrix(0.803541 -0.789426 0.789426 0.803541 -145.05 92.3067)" ry="0" id="e42_rectangle"/><rect x="146.38656616210938" y="276.8131408691406" stroke="black" style="stroke-width: 0px; vector-effect: non-scaling-stroke;" width="38.1238" height="6.84058" fill="black" rx="0" transform="matrix(0.803541 -0.789426 0.789426 0.803541 -145.05 92.3067)" ry="0" id="e43_rectangle"/><rect x="209.5011444091797" y="338.13397216796875" stroke="black" style="stroke-width: 0px; vector-effect: non-scaling-stroke;" width="38.1238" height="6.84058" fill="black" rx="0" transform="matrix(0.803541 -0.789426 0.789426 0.803541 -145.05 92.3067)" ry="0" id="e44_rectangle"/><rect x="120.452" y="82.1337" stroke="black" style="stroke-width: 0px; vector-effect: non-scaling-stroke;" width="25.3315" height="6.6082" fill="black" rx="0" transform="matrix(0.999985 -0.00537033 0.00537033 0.999985 -99.5442 -22.5608)" ry="0" id="e46_rectangle"/><rect x="115.876" y="113.498" stroke="black" style="stroke-width: 0px; vector-effect: non-scaling-stroke;" width="30.8384" height="6.63778" fill="black" rx="0" transform="matrix(0.999985 -0.00537033 0.00537033 0.999985 -99.5442 -22.5608)" ry="0" id="e47_rectangle"/></svg>