<?xml version="1.0" encoding="UTF-8" standalone="no"?>
<svg
   xmlns:dc="http://purl.org/dc/elements/1.1/"
   xmlns:cc="http://creativecommons.org/ns#"
   xmlns:rdf="http://www.w3.org/1999/02/22-rdf-syntax-ns#"
   xmlns:svg="http://www.w3.org/2000/svg"
   xmlns="http://www.w3.org/2000/svg"
   xmlns:sodipodi="http://sodipodi.sourceforge.net/DTD/sodipodi-0.dtd"
   xmlns:inkscape="http://www.inkscape.org/namespaces/inkscape"
   version="1.1"
   viewBox="0 0 78.155161 78.155161"
   preserveAspectRatio="xMinYMin meet"
   xml:space="preserve"
   id="svg2"
   inkscape:version="0.48.4 r9939"
   sodipodi:docname="cms.svg"
   width="100%"
   height="100%"><metadata
     id="metadata14"><rdf:RDF><cc:Work
         rdf:about=""><dc:format>image/svg+xml</dc:format><dc:type
           rdf:resource="http://purl.org/dc/dcmitype/StillImage" /><dc:title></dc:title></cc:Work></rdf:RDF></metadata><defs
     id="defs12" /><sodipodi:namedview
     pagecolor="#ffffff"
     bordercolor="#666666"
     borderopacity="1"
     objecttolerance="10"
     gridtolerance="10"
     guidetolerance="10"
     inkscape:pageopacity="0"
     inkscape:pageshadow="2"
     inkscape:window-width="1317"
     inkscape:window-height="744"
     id="namedview10"
     showgrid="false"
     inkscape:zoom="5.3400704"
     inkscape:cx="45.852763"
     inkscape:cy="48.497165"
     inkscape:window-x="49"
     inkscape:window-y="24"
     inkscape:window-maximized="1"
     inkscape:current-layer="svg2"
     fit-margin-top="0"
     fit-margin-left="0"
     fit-margin-right="0"
     fit-margin-bottom="0" /><path
     style="fill:none;stroke:#333333;stroke-width:0.90291589000000005;stroke-linecap:round;stroke-linejoin:round;stroke-miterlimit:4;stroke-opacity:1"
     d="M 23.652426 8.3428746 C 28.291355 6.010124 33.531087 4.6967269 39.07758 4.6967269 C 44.574154 4.6967269 49.769464 5.9865888 54.377335 8.2801374 "
     id="path6240" /><path
     style="fill:none;stroke:#333333;stroke-width:0.90291589000000005;stroke-linecap:round;stroke-linejoin:round;stroke-miterlimit:4;stroke-opacity:1"
     d="M 62.444696 64.297247 C 56.311331 69.98276 48.100349 73.458432 39.07758 73.458432 C 30.255126 73.458432 22.208813 70.135374 16.122023 64.672637 "
     id="path4986" /><g
     inkscape:groupmode="layer"
     id="layer1"
     inkscape:label="Fundo"
     style="display:inline" /><g
     inkscape:groupmode="layer"
     id="layer2"
     inkscape:label="Icones" /><path
     style="fill:#fa3077;fill-opacity:1"
     d="m 62.790057,29.648561 c -2.559614,0 -5.119227,0 -7.678841,0 0,1.52953 0,3.05906 0,4.58859 2.559614,0 5.119227,0 7.678841,0 0,-1.52953 0,-3.05906 0,-4.58859 z"
     id="path5923"
     inkscape:connector-curvature="0" /><path
     style="fill:#fa3077;fill-opacity:1"
     d="m 63.770335,43.730529 c 2.559614,0 5.119227,0 7.678841,0 0,-1.52953 0,-3.059059 0,-4.588589 -2.559614,0 -5.119227,0 -7.678841,0 0,1.52953 0,3.059059 0,4.588589 z"
     id="path5919"
     inkscape:connector-curvature="0" /><path
     style="fill:#fa3077;fill-opacity:1"
     d="m 63.770335,34.237151 c 2.559614,0 5.119227,0 7.678841,0 0,-1.52953 0,-3.05906 0,-4.58859 -2.559614,0 -5.119227,0 -7.678841,0 0,1.52953 0,3.05906 0,4.58859 z"
     id="path5917"
     inkscape:connector-curvature="0" /><path
     style="fill:#fa3077;fill-opacity:1"
     d="m 62.790057,39.14194 c -2.559614,0 -5.119227,0 -7.678841,0 0,1.52953 0,3.059059 0,4.588589 2.559614,0 5.119227,0 7.678841,0 0,-1.52953 0,-3.059059 0,-4.588589 z"
     id="path5913"
     inkscape:connector-curvature="0" /><path
     style="fill:#fa3077;fill-opacity:1"
     d="M 9.9997585,24.788855 C 14.241789,24.931059 12.288462,18.882072 8.7961336,21.10253 7.1646857,22.257258 7.9132894,24.678867 9.9997585,24.788855 z"
     id="path5893"
     inkscape:connector-curvature="0"
     sodipodi:nodetypes="ccc" /><path
     style="fill:#fa3077;fill-opacity:1"
     d="m 38.773258,26.595281 c -10.347374,0 -20.694749,0 -31.0421236,0 0,6.139661 0,12.279323 0,18.418984 10.3473746,0 20.6947496,0 31.0421236,0 0,-6.139661 0,-12.279323 0,-18.418984 z"
     id="path5887"
     inkscape:connector-curvature="0" /><rect
     style="fill:none;stroke:#fa3077;stroke-width:2;stroke-linecap:round;stroke-linejoin:round;stroke-miterlimit:4;stroke-opacity:1;stroke-dasharray:none"
     id="rect5986"
     width="70.85849"
     height="50.634033"
     x="3.973649"
     y="10.703869" /><path
     style="fill:none;stroke:#fa3077;stroke-width:1;stroke-linecap:round;stroke-linejoin:miter;stroke-miterlimit:4;stroke-opacity:1;stroke-dasharray:none"
     d="m 8.5044225,47.443956 27.1532005,0"
     id="path5988"
     inkscape:connector-curvature="0" /><path
     style="fill:none;stroke:#fa3077;stroke-width:1;stroke-linecap:round;stroke-linejoin:miter;stroke-miterlimit:4;stroke-opacity:1;stroke-dasharray:none"
     d="m 8.4728275,50.746079 25.4373905,0"
     id="path5988-1"
     inkscape:connector-curvature="0" /><path
     style="fill:none;stroke:#fa3077;stroke-width:1;stroke-linecap:round;stroke-linejoin:miter;stroke-miterlimit:4;stroke-opacity:1;stroke-dasharray:none"
     d="m 8.5044225,57.350323 27.1532015,0"
     id="path5988-1-5"
     inkscape:connector-curvature="0" /><path
     style="fill:none;stroke:#fa3077;stroke-width:1;stroke-linecap:round;stroke-linejoin:miter;stroke-miterlimit:4;stroke-opacity:1;stroke-dasharray:none"
     d="m 8.5210515,54.048201 28.0562615,0"
     id="path5988-1-5-3"
     inkscape:connector-curvature="0" /><path
     style="fill:none;stroke:#fa3077;stroke-width:1;stroke-linecap:round;stroke-linejoin:miter;stroke-miterlimit:4;stroke-opacity:1;stroke-dasharray:none"
     d="m 40.98147,27.874923 10.60671,0"
     id="path5988-1-9"
     inkscape:connector-curvature="0" /><path
     style="fill:none;stroke:#fa3077;stroke-width:1;stroke-linecap:round;stroke-linejoin:miter;stroke-miterlimit:4;stroke-opacity:1;stroke-dasharray:none"
     d="m 40.98147,43.230529 10.60671,0"
     id="path5988-1-9-3"
     inkscape:connector-curvature="0" /><path
     style="fill:none;stroke:#fa3077;stroke-width:1;stroke-linecap:round;stroke-linejoin:miter;stroke-miterlimit:4;stroke-opacity:1;stroke-dasharray:none"
     d="m 40.98147,40.159408 10.60671,0"
     id="path5988-1-9-2"
     inkscape:connector-curvature="0" /><path
     style="fill:none;stroke:#fa3077;stroke-width:1;stroke-linecap:round;stroke-linejoin:miter;stroke-miterlimit:4;stroke-opacity:1;stroke-dasharray:none"
     d="m 40.98147,37.088287 10.60671,0"
     id="path5988-1-9-5"
     inkscape:connector-curvature="0" /><path
     style="fill:none;stroke:#fa3077;stroke-width:1;stroke-linecap:round;stroke-linejoin:miter;stroke-miterlimit:4;stroke-opacity:1;stroke-dasharray:none"
     d="m 40.98147,34.017165 10.60671,0"
     id="path5988-1-9-7"
     inkscape:connector-curvature="0" /><path
     style="fill:none;stroke:#fa3077;stroke-width:1;stroke-linecap:round;stroke-linejoin:miter;stroke-miterlimit:4;stroke-opacity:1;stroke-dasharray:none"
     d="m 40.98147,30.946044 10.60671,0"
     id="path5988-1-9-6"
     inkscape:connector-curvature="0" /><path
     style="fill:none;stroke:#fa3077;stroke-width:1;stroke-linecap:round;stroke-linejoin:miter;stroke-miterlimit:4;stroke-opacity:1;stroke-dasharray:none"
     d="m 55.634835,27.874923 10.60671,0"
     id="path5988-1-9-8"
     inkscape:connector-curvature="0" /><path
     style="fill:none;stroke:#fa3077;stroke-width:1;stroke-linecap:round;stroke-linejoin:miter;stroke-miterlimit:4;stroke-opacity:1;stroke-dasharray:none"
     d="m 55.728467,37.088287 10.60671,0"
     id="path5988-1-9-63"
     inkscape:connector-curvature="0" /><path
     style="fill:none;stroke:#fa3077;stroke-width:1;stroke-linecap:round;stroke-linejoin:miter;stroke-miterlimit:4;stroke-opacity:1;stroke-dasharray:none"
     d="m 40.431916,15.515537 5.900651,0"
     id="path5988-1-9-57"
     inkscape:connector-curvature="0" /><path
     style="fill:none;stroke:#fa3077;stroke-width:1;stroke-linecap:round;stroke-linejoin:miter;stroke-miterlimit:4;stroke-opacity:1;stroke-dasharray:none"
     d="m 48.637452,15.515537 5.900651,0"
     id="path5988-1-9-57-0"
     inkscape:connector-curvature="0" /><path
     style="fill:none;stroke:#fa3077;stroke-width:1;stroke-linecap:round;stroke-linejoin:miter;stroke-miterlimit:4;stroke-opacity:1;stroke-dasharray:none"
     d="m 56.842986,15.515537 5.900652,0"
     id="path5988-1-9-57-4"
     inkscape:connector-curvature="0" /><path
     style="fill:none;stroke:#fa3077;stroke-width:1;stroke-linecap:round;stroke-linejoin:miter;stroke-miterlimit:4;stroke-opacity:1;stroke-dasharray:none"
     d="m 65.048525,15.515537 5.900651,0"
     id="path5988-1-9-57-6"
     inkscape:connector-curvature="0" /><path
     style="fill:none;stroke:#fa3077;stroke-width:1;stroke-linecap:round;stroke-linejoin:miter;stroke-miterlimit:4;stroke-opacity:1;stroke-dasharray:none"
     d="m 14.917271,21.882496 5.900651,0"
     id="path5988-1-9-57-5"
     inkscape:connector-curvature="0" /><path
     style="fill:none;stroke:#fa3077;stroke-width:1;stroke-linecap:round;stroke-linejoin:miter;stroke-miterlimit:4;stroke-opacity:1;stroke-dasharray:none"
     d="m 14.917271,23.848761 10.60671,0"
     id="path5988-1-9-79"
     inkscape:connector-curvature="0" /><path
     style="fill:none;stroke:#fa3077;stroke-width:2;stroke-linecap:round;stroke-linejoin:miter;stroke-miterlimit:4;stroke-opacity:1;stroke-dasharray:none"
     d="m 9.0044225,15.515537 5.9006515,0"
     id="path5988-1-9-57-5-0"
     inkscape:connector-curvature="0" /></svg>