<svg xmlns="http://www.w3.org/2000/svg" xmlns:xlink="http://www.w3.org/1999/xlink" preserveAspectRatio="xMinYMin meet" viewBox="0 0 720 220"><defs><pattern xlink:href="#a" id="c" patternTransform="matrix(10 0 0 10 -127.544 -295.638)"/><pattern xlink:href="#b" id="a" patternTransform="scale(10)"/><pattern id="b" patternTransform="scale(10)" height="10" width="10" patternUnits="userSpaceOnUse"><circle r=".05" cy=".81" cx="2.567"/><circle r=".05" cy="2.33" cx="3.048"/><circle r=".05" cy="2.415" cx="4.418"/><circle r=".05" cy="3.029" cx="1.844"/><circle r=".05" cy="1.363" cx="6.08"/><circle r=".05" cy="4.413" cx="5.819"/><circle r=".05" cy="4.048" cx="4.305"/><circle r=".05" cy="3.045" cx="5.541"/><circle r=".05" cy="5.527" cx="4.785"/><circle r=".05" cy="5.184" cx="2.667"/><circle r=".05" cy="1.448" cx="7.965"/><circle r=".05" cy="5.049" cx="7.047"/><circle r=".05" cy=".895" cx="4.34"/><circle r=".05" cy=".34" cx="7.125"/><circle r=".05" cy="1.049" cx="9.553"/><circle r=".05" cy="2.689" cx="7.006"/><circle r=".05" cy="2.689" cx="8.909"/><circle r=".05" cy="4.407" cx="9.315"/><circle r=".05" cy="3.87" cx="7.82"/><circle r=".05" cy="5.948" cx="8.27"/><circle r=".05" cy="7.428" cx="7.973"/><circle r=".05" cy="8.072" cx="9.342"/><circle r=".05" cy="9.315" cx="8.206"/><circle r=".05" cy="9.475" cx="9.682"/><circle r=".05" cy="6.186" cx="9.688"/><circle r=".05" cy="6.296" cx="3.379"/><circle r=".05" cy="8.204" cx="2.871"/><circle r=".05" cy="8.719" cx="4.59"/><circle r=".05" cy="9.671" cx="3.181"/><circle r=".05" cy="7.315" cx="5.734"/><circle r=".05" cy="6.513" cx="6.707"/><circle r=".05" cy="9.67" cx="5.73"/><circle r=".05" cy="8.373" cx="6.535"/><circle r=".05" cy="7.154" cx="4.37"/><circle r=".05" cy="7.25" cx=".622"/><circle r=".05" cy="5.679" cx=".831"/><circle r=".05" cy="8.519" cx="1.257"/><circle r=".05" cy="6.877" cx="1.989"/><circle r=".05" cy="3.181" cx=".374"/><circle r=".05" cy="1.664" cx="1.166"/><circle r=".05" cy=".093" cx="1.151"/><circle r=".05" cy="10.093" cx="1.151"/><circle r=".05" cy="4.451" cx="1.302"/><circle r=".05" cy="3.763" cx="3.047"/></pattern></defs><path d="M470.28-8.53c-32.01 0-59.16 20.668-68.936 49.374-13.13-14.633-32.167-23.813-53.375-23.813-17.08 0-32.72 5.98-45.04 15.94-9.7 7.85-17.33 18.19-21.903 30.03-4.75-35-34.756-61.97-71.06-61.97-17.074 0-32.718 5.98-45.033 15.94-12.796 10.35-21.98 24.99-25.313 41.75-.226-.583-.445-1.17-.687-1.75-10.813-25.903-36.36-44.122-66.187-44.122-39.61 0-71.72 32.14-71.72 71.75s32.11 71.72 71.72 71.72c17.073 0 32.746-5.978 45.062-15.94 12.81-10.36 21.994-25.027 25.31-41.81 26.054 64.217 112.642 51.408 133.81-.095.86 6.264 2.515 12.26 4.876 17.906 10.82 25.886 36.342 44.093 66.155 44.093 31.29 0 57.86-20.056 67.654-48 13.346 15.14 32.88 24.717 54.655 24.717 27.665 0 51.726-15.418 64.064-38.13 1.287 39.108 33.39 70.407 72.81 70.407 40.24 0 72.845-32.608 72.845-72.846s-32.6-72.873-72.84-72.873c-27.66 0-51.724 15.413-64.06 38.124-1.3-39.09-33.4-70.402-72.81-70.402z" transform="translate(-.013 9.55)" fill="url(#c)" stroke-linecap="round" stroke-linejoin="round" stroke="#333" stroke-width="2.036"/><g letter-spacing="0" word-spacing="0" fill="#fa3077" font-family="Nexa Light"><text style="text-align:start;line-height:125%;-inkscape-font-specification:'Nexa Light,'" x="189.065" y="370.651" transform="rotate(4.07 3962.37 -1938.173)" font-size="22"><tspan x="189.065" y="370.651" style="-inkscape-font-specification:Arial Bold" font-size="18" font-weight="bold" font-family="Arial">empatia</tspan></text><text style="text-align:start;line-height:125%;-inkscape-font-specification:Arial Bold" x="349.787" y="347.728" transform="rotate(2.003 8119.81 -3791.84)" font-size="12.123" font-weight="bold"><tspan x="349.787" y="347.728" style="text-align:center;-inkscape-font-specification:Arial Bold" font-size="16" text-anchor="middle" font-family="Arial">problemas</tspan><tspan x="349.787" y="367.728" style="text-align:center;-inkscape-font-specification:Arial Bold" font-size="16" text-anchor="middle" font-family="Arial">e oportunidades</tspan></text><text style="text-align:start;line-height:125%;-inkscape-font-specification:Arial Bold" x="642.643" y="454.687" transform="rotate(-4.46 -3738.012 1495.176)" font-size="12.123" font-weight="bold"><tspan x="642.643" y="454.687"><tspan x="642.643" y="454.687" style="-inkscape-font-specification:Arial Bold" font-size="16.164" font-family="Arial">implementação</tspan></tspan></text><text style="text-align:start;line-height:125%;-inkscape-font-specification:Arial Bold" x="490.756" y="382.007" transform="rotate(2.003 8119.81 -3791.84)" font-size="12.123" font-weight="bold"><tspan x="490.756" y="382.007" style="text-align:center;-inkscape-font-specification:Arial Bold" font-size="16" text-anchor="middle" font-family="Arial">idealização</tspan></text><text style="text-align:start;line-height:125%;-inkscape-font-specification:Arial Bold" x="611.339" y="332.727" transform="rotate(2.003 8119.81 -3791.84)" font-size="12.123" font-weight="bold"><tspan x="611.339" y="332.727" style="text-align:center;-inkscape-font-specification:Arial Bold" font-size="16" text-anchor="middle" font-family="Arial">prototipação</tspan><tspan x="611.339" y="352.727" style="text-align:center;-inkscape-font-specification:Arial Bold" font-size="16" text-anchor="middle" font-family="Arial">e teste</tspan></text></g></svg>