<svg xmlns:svg="http://www.w3.org/2000/svg" xmlns="http://www.w3.org/2000/svg" version="1.1" viewBox="0 0 78.16 78.16" preserveAspectRatio="xMinYMin meet" xml:space="preserve" id="svg2">
  <metadata id="metadata14"/>
  <defs id="defs12"/>
  <path id="path4986" d="m86.6 39.99a34.96 34.96 0 1 1-69.92 0 34.96 34.96 0 1 1 69.92 0z" transform="matrix(0.9835008,0,0,0.9835008,-11.712317,-0.25203286)" style="fill:none;stroke-linejoin:round;stroke-miterlimit:4;stroke-width:0.92;stroke:#333"/>
  <g id="layer1" display="inline"/>
  <path id="path6261-9" d="M9.17 60.93 9.77 50.85 40.64 6.48 47.82 8.16 55.88-0.45 68.9 18.81 75.16 31.34 69.45 39.05 64.05 60.17 47.42 70.16l2.46 6.31c-2.01 1 1.33 1.06-7.84 2.06l-3.67-6.53-8.79-3.77-9.36 5.43z" fill="#fff"/>
  <g id="layer2">
    <g transform="matrix(0.82750957,0,0,0.82750957,-10.972968,-0.79266212)" id="g5116" fill="#fa3077">
      <g id="g5118" fill="#fa3077">
        <path d="m88.75 38.7-3.07 1.56c-8.05 4.07-21.51 10.89-28.36 13.36-1.01 0.36-3.43 1.01-4.24-0.77-0.74-1.63-0.08-3.56 1.49-4.4l0.61-0.32C67.81 41.41 79.24 34.45 77.62 28.88l8.53-11.2 8.65 1.7c1.73 0.55 2.26-1.39 0.39-1.96l-7.69-1.51 3.26-4.28C91.21 11.03 91.41 10.31 91.3 9.57 91.2 8.84 90.83 8.2 90.24 7.75L86.03 4.56C84.82 3.64 83.08 3.88 82.16 5.09l-7.09 9.35-9.68 0c-2.37 0-4.48 1.49-6.28 4.42-4.24 6.91-9.75 16.53-11.64 20.65-1.37 2.99-0.83 5.52 1.41 6.59 0.64 0.31 1.24 0.46 1.8 0.49L46.26 52.45C46 52.79 45.82 53.19 45.75 53.61l-1.6 8.58c-0.09 0.5 0.1 1.01 0.51 1.32 0.24 0.18 0.53 0.28 0.81 0.28 0.2 0 0.41-0.05 0.6-0.14l7.83-3.86c0.38-0.19 0.72-0.47 0.98-0.81l2.48-3.27c0.21-0.06 0.43-0.13 0.65-0.21 1.37-0.49 2.98-1.15 4.74-1.91 0.54 1.85 2.25 3.16 4.22 3.16 0.13 0 0.25 0 0.38-0.02 2.98-0.25 5.24-2.74 5.27-5.67 0.57 0.39 1.23 0.6 1.92 0.6 0.1 0 0.2 0 0.3-0.01 1.18-0.1 2.25-0.66 3.02-1.56 0.63-0.75 0.97-1.66 1.02-2.62 0.29 0.11 0.6 0.17 0.91 0.17 0.08 0 0.15 0 0.23-0.01 0.87-0.07 1.65-0.48 2.21-1.14 0.56-0.66 0.83-1.5 0.75-2.37l-0.02-0.23c1.28-0.64 2.5-1.26 3.65-1.84l3.04-1.54c2.25-1.05 5.34-1.09 5.37-1.09 1.51-0.03 1.59-2.21-0.02-2-0.15 0-3.54 0.05-6.22 1.29zM53.63 46.67c-0.39 0.21-0.74 0.47-1.05 0.76l26.33-34.73 0.76 0.57-25.11 32.91c-0.11 0.06-0.22 0.12-0.32 0.17zm-5.42 6.52 3.15-4.15c-0.34 0.68-0.52 1.43-0.55 2.19l-1.89 2.49zM67.82 38.45c-0.64 0.43-1.29 0.85-1.95 1.27l17.72-23.51 0.74 0.55zm-6.53 4.03c-0.85 0.49-1.67 0.95-2.47 1.39l22.43-29.4 0.73 0.55-20.7 27.46zM83.76 6.3C84.01 5.97 84.49 5.9 84.82 6.16l4.21 3.19c0.16 0.12 0.27 0.3 0.29 0.5 0.03 0.2-0.02 0.4-0.15 0.56l-3.63 4.77-5.43-4.07zM49.3 40.35c1.83-4 7.41-13.72 11.52-20.44 1.41-2.3 2.95-3.46 4.57-3.46l8.16 0-4.67 6.16c-0.88 0.01-3.2 0.27-4.65 2.5-1.55 2.37-6.67 10.82-9.23 15.27-2.69 4.68-3.92 4.57-5.25 3.93C48.08 43.5 48.88 41.27 49.3 40.35zM65.91 26.19c0.3-0.46 0.65-0.78 1.02-1.01l-2.29 3.02c0.53-0.85 0.97-1.55 1.27-2.01zm-18.42 28.97 4.43 3.36-5.58 2.75zm6.14 2.14-3.12-2.37 0.84-1.1c0.65 1.29 1.79 2.03 3.27 2.18zm13.53-2.56c-1.24 0.11-2.34-0.77-2.56-1.98 1.85-0.83 3.82-1.75 5.84-2.71l0.14 0.68c0.14 2.04-1.38 3.84-3.43 4.01zm9.15-5.93C75.89 49.3 75.3 49.61 74.65 49.66c-0.38 0.04-0.77-0.09-1.06-0.34-0.19-0.16-0.31-0.37-0.4-0.6 1.23-0.6 2.46-1.2 3.68-1.81l0.01 0.11c0.06 0.65-0.14 1.28-0.56 1.78zm4.37-3.61c-0.21 0.25-0.52 0.41-0.85 0.44-0.1 0.01-0.19-0.01-0.28-0.05 0.43-0.21 0.85-0.42 1.27-0.64-0.04 0.08-0.07 0.17-0.14 0.25z" id="path5120" style="fill:#fa3077;stroke-miterlimit:4;stroke-width:0.3;stroke:#fa3077"/>
        <path d="m75.64 75.07c-4.67 1.86-12.61 4.85-12.61 4.85L51.14 74.57 47.49 66.31c-0.46-1.11-2.52-0.46-1.86 0.74L48.54 73.37 43.68 71.21C43.89 70.51 44 69.77 44 69c0-4.41-3.59-8-8-8-4.41 0-8 3.59-8 8 0 4.41 3.59 8 8 8 2.93 0 5.5-1.59 6.89-3.95l5.79 2.61-10.22 6.5c-1.56 1.28-0.32 2.81 1.07 1.69l11.07-7.3 11.62 5.21c0 0 3.77 8.69 4.85 11.64 0.66 1.81 2.48 1.22 1.85-0.77-0.63-1.99-4.6-11.05-4.6-11.05 0 0 6.63-2.54 12.04-4.63 1.5-0.58 0.7-2.43-0.72-1.87zM36 75c-3.31 0-6-2.69-6-6 0-3.31 2.69-6 6-6 3.31 0 6 2.69 6 6 0 3.31-2.69 6-6 6z" style="fill:#fa3077;stroke-miterlimit:4;stroke-width:0.3;stroke:#fa3077"/>
      </g>
    </g>
  </g>
</svg>