<svg xmlns="http://www.w3.org/2000/svg" preserveAspectRatio="xMinYMin meet" viewBox="0 0 730 230"><defs><marker orient="auto" id="b" overflow="visible"><path d="M-4 0l-2 2 7-2-7-2 2 2z" fill-rule="evenodd" stroke="#000" stroke-width=".4pt"/></marker><pattern id="a" patternTransform="scale(10)" height="10" width="10" patternUnits="userSpaceOnUse"><circle r=".05" cy=".81" cx="2.567"/><circle r=".05" cy="2.33" cx="3.048"/><circle r=".05" cy="2.415" cx="4.418"/><circle r=".05" cy="3.029" cx="1.844"/><circle r=".05" cy="1.363" cx="6.08"/><circle r=".05" cy="4.413" cx="5.819"/><circle r=".05" cy="4.048" cx="4.305"/><circle r=".05" cy="3.045" cx="5.541"/><circle r=".05" cy="5.527" cx="4.785"/><circle r=".05" cy="5.184" cx="2.667"/><circle r=".05" cy="1.448" cx="7.965"/><circle r=".05" cy="5.049" cx="7.047"/><circle r=".05" cy=".895" cx="4.34"/><circle r=".05" cy=".34" cx="7.125"/><circle r=".05" cy="1.049" cx="9.553"/><circle r=".05" cy="2.689" cx="7.006"/><circle r=".05" cy="2.689" cx="8.909"/><circle r=".05" cy="4.407" cx="9.315"/><circle r=".05" cy="3.87" cx="7.82"/><circle r=".05" cy="5.948" cx="8.27"/><circle r=".05" cy="7.428" cx="7.973"/><circle r=".05" cy="8.072" cx="9.342"/><circle r=".05" cy="9.315" cx="8.206"/><circle r=".05" cy="9.475" cx="9.682"/><circle r=".05" cy="6.186" cx="9.688"/><circle r=".05" cy="6.296" cx="3.379"/><circle r=".05" cy="8.204" cx="2.871"/><circle r=".05" cy="8.719" cx="4.59"/><circle r=".05" cy="9.671" cx="3.181"/><circle r=".05" cy="7.315" cx="5.734"/><circle r=".05" cy="6.513" cx="6.707"/><circle r=".05" cy="9.67" cx="5.73"/><circle r=".05" cy="8.373" cx="6.535"/><circle r=".05" cy="7.154" cx="4.37"/><circle r=".05" cy="7.25" cx=".622"/><circle r=".05" cy="5.679" cx=".831"/><circle r=".05" cy="8.519" cx="1.257"/><circle r=".05" cy="6.877" cx="1.989"/><circle r=".05" cy="3.181" cx=".374"/><circle r=".05" cy="1.664" cx="1.166"/><circle r=".05" cy=".093" cx="1.151"/><circle r=".05" cy="10.093" cx="1.151"/><circle r=".05" cy="4.451" cx="1.302"/><circle r=".05" cy="3.763" cx="3.047"/></pattern><marker orient="auto" id="c" overflow="visible"><path d="M-4 0l-2 2 7-2-7-2 2 2z" fill-rule="evenodd" stroke="#000" stroke-width=".4pt"/></marker></defs><text style="text-align:start;line-height:125%;-inkscape-font-specification:'Nexa Light,'" x="196.471" y="382.154" transform="rotate(4.07 3931.506 -1971.297)" font-size="22" letter-spacing="0" word-spacing="0" fill="#fa3077" font-family="Nexa Light"><tspan x="196.471" y="382.154" style="-inkscape-font-specification:Arial Bold" font-size="18" font-weight="bold" font-family="Arial">aprender</tspan></text><path d="M192.857-91.393a75.714 75.714 0 1 1-151.428 0 75.714 75.714 0 1 1 151.425 0z" transform="translate(-40.43 198.107)" fill="url(#a)" stroke="#333" stroke-width="2" stroke-linecap="round" stroke-linejoin="round"/><path transform="translate(226.714 168.107)" d="M192.857-91.393a75.714 75.714 0 1 1-151.428 0 75.714 75.714 0 1 1 151.425 0z" fill="url(#a)" stroke="#333" stroke-width="2" stroke-linecap="round" stroke-linejoin="round"/><path transform="translate(481.57 186.107)" d="M192.857-91.393a75.714 75.714 0 1 1-151.428 0 75.714 75.714 0 1 1 151.425 0z" fill="url(#a)" stroke="#333" stroke-width="2" stroke-linecap="round" stroke-linejoin="round"/><text style="text-align:start;line-height:125%;-inkscape-font-specification:'Nexa Light,'" x="459.08" y="328.153" transform="rotate(4.07 3931.506 -1971.297)" font-size="22" letter-spacing="0" word-spacing="0" fill="#fa3077" font-family="Nexa Light"><tspan x="459.08" y="328.153" style="-inkscape-font-specification:Arial Bold" font-size="18" font-weight="bold" font-family="Arial">construir</tspan></text><text style="text-align:start;line-height:125%;-inkscape-font-specification:'Nexa Light,'" x="731.589" y="333.613" transform="rotate(4.07 3931.506 -1971.297)" font-size="22" letter-spacing="0" word-spacing="0" fill="#fa3077" font-family="Nexa Light"><tspan x="731.589" y="333.613" style="-inkscape-font-specification:Arial Bold" font-size="18" font-weight="bold" font-family="Arial">medir</tspan></text><g fill="none" stroke="#33333f" stroke-width="2" stroke-opacity=".941"><path d="M152.857 87.18s40.72-26.394 115.714-18.573m153.837 8.818s45.96 25.8 103.276 25.54" marker-end="url(#b)" transform="translate(-2.43 2.107)"/><path d="M545.714 144.322s-235.865 114.865-399.74-3.97" marker-end="url(#c)" transform="translate(-2.43 2.107)"/></g></svg>