<svg xmlns="http://www.w3.org/2000/svg" preserveAspectRatio="xMinYMin meet" viewBox="0 0 294 174" width="auto"><g transform="translate(-2.957 -83.987)"><path d="M289.043 253.465c0 2.513-2.036 4.548-4.548 4.548H19.505c-2.512 0-4.548-2.035-4.548-4.548v-9.396c0-2.515 2.036-4.55 4.548-4.55h264.99c2.512 0 4.548 2.035 4.548 4.55z" fill="#c8c8c8"/><path d="M173.042 240.373c0 2.42-1.96 4.377-4.378 4.377h-36.95c-2.417 0-4.376-1.958-4.376-4.377 0-2.416 1.96-4.377 4.377-4.377h36.95c2.418 0 4.377 1.96 4.377 4.377z" fill="#9c9c9c"/><path d="M252.628 83.987H47.525c-6.027 0-10.915 4.89-10.915 10.915V239.52h226.932V94.902c0-6.025-4.887-10.915-10.914-10.915z" fill="#575757"/><circle cx="150.303" cy="91.264" r="2.729" fill="#a4c2d3"/><path d="M253.385 226.787c0 3.016-2.442 5.457-5.458 5.457H52.68c-1.507 0-2.87-.608-3.858-1.596-.987-.988-1.6-2.352-1.6-3.86V103.393c0-3.015 2.444-5.457 5.458-5.457h195.247c1.432 0 2.732.55 3.706 1.45 1.078.998 1.752 2.423 1.752 4.007z" fill="#fbfbfb"/><path d="M49.116 230.424c.085 1.134 2.843 2.048 2.843 2.048l193.845-.228c7.617.34 7.58-5.457 7.58-5.457l.037-124.268s-.483-3.235-2.387-3.07L49.115 230.423z" fill="#858585" opacity=".026"/></g></svg>
