<svg xmlns="http://www.w3.org/2000/svg" xmlns:xlink="http://www.w3.org/1999/xlink" preserveAspectRatio="xMinYMin meet" viewBox="0 0 690 240"><defs><pattern xlink:href="#a" id="b" patternTransform="matrix(9.826 0 0 10 65.925 0)"/><marker orient="auto" id="d" overflow="visible"><path d="M4 0l2-2-7 2 7 2-2-2z" fill-rule="evenodd" stroke="#000" stroke-width=".4pt"/></marker><pattern id="a" patternTransform="scale(10)" height="10" width="10" patternUnits="userSpaceOnUse"><circle r=".05" cy=".81" cx="2.567"/><circle r=".05" cy="2.33" cx="3.048"/><circle r=".05" cy="2.415" cx="4.418"/><circle r=".05" cy="3.029" cx="1.844"/><circle r=".05" cy="1.363" cx="6.08"/><circle r=".05" cy="4.413" cx="5.819"/><circle r=".05" cy="4.048" cx="4.305"/><circle r=".05" cy="3.045" cx="5.541"/><circle r=".05" cy="5.527" cx="4.785"/><circle r=".05" cy="5.184" cx="2.667"/><circle r=".05" cy="1.448" cx="7.965"/><circle r=".05" cy="5.049" cx="7.047"/><circle r=".05" cy=".895" cx="4.34"/><circle r=".05" cy=".34" cx="7.125"/><circle r=".05" cy="1.049" cx="9.553"/><circle r=".05" cy="2.689" cx="7.006"/><circle r=".05" cy="2.689" cx="8.909"/><circle r=".05" cy="4.407" cx="9.315"/><circle r=".05" cy="3.87" cx="7.82"/><circle r=".05" cy="5.948" cx="8.27"/><circle r=".05" cy="7.428" cx="7.973"/><circle r=".05" cy="8.072" cx="9.342"/><circle r=".05" cy="9.315" cx="8.206"/><circle r=".05" cy="9.475" cx="9.682"/><circle r=".05" cy="6.186" cx="9.688"/><circle r=".05" cy="6.296" cx="3.379"/><circle r=".05" cy="8.204" cx="2.871"/><circle r=".05" cy="8.719" cx="4.59"/><circle r=".05" cy="9.671" cx="3.181"/><circle r=".05" cy="7.315" cx="5.734"/><circle r=".05" cy="6.513" cx="6.707"/><circle r=".05" cy="9.67" cx="5.73"/><circle r=".05" cy="8.373" cx="6.535"/><circle r=".05" cy="7.154" cx="4.37"/><circle r=".05" cy="7.25" cx=".622"/><circle r=".05" cy="5.679" cx=".831"/><circle r=".05" cy="8.519" cx="1.257"/><circle r=".05" cy="6.877" cx="1.989"/><circle r=".05" cy="3.181" cx=".374"/><circle r=".05" cy="1.664" cx="1.166"/><circle r=".05" cy=".093" cx="1.151"/><circle r=".05" cy="10.093" cx="1.151"/><circle r=".05" cy="4.451" cx="1.302"/><circle r=".05" cy="3.763" cx="3.047"/></pattern><marker orient="auto" id="c" overflow="visible"><path d="M-4 0l-2 2 7-2-7-2 2 2z" fill-rule="evenodd" stroke="#000" stroke-width=".4pt"/></marker></defs><path d="M174.714 26.61h90l.715 72.857-90.717-2.143z" fill="url(#b)" transform="translate(-19.434 .913)"/><text style="text-align:start;line-height:125%;-inkscape-font-specification:'Nexa Light,'" x="351.588" y="321.603" transform="rotate(4.07 3908.94 -2244.337)" font-size="22" letter-spacing="0" word-spacing="0" fill="#fa3077" font-family="Nexa Light"><tspan x="351.588" y="321.603" style="-inkscape-font-specification:Arial Bold" font-size="18" font-weight="bold" font-family="Arial">criar</tspan></text><text style="text-align:start;line-height:80.00000119%;-inkscape-font-specification:'Nexa Light,'" x="386.282" y="455.424" transform="rotate(4.07 3908.94 -2244.337)" font-size="22" letter-spacing="0" word-spacing="0" fill="#333" font-family="Nexa Light"><tspan x="386.282" y="455.424" style="line-height:80.00000119%;-inkscape-font-specification:Arial Bold" font-size="13" font-weight="bold" font-family="Arial">novos</tspan><tspan x="386.282" y="465.824" style="line-height:80.00000119%;-inkscape-font-specification:Arial Bold" font-size="13" font-weight="bold" font-family="Arial">usuarios</tspan></text><text style="text-align:start;line-height:80.00000119%;-inkscape-font-specification:'Nexa Light,'" x="172.903" y="295.576" transform="rotate(4.07 3908.94 -2244.337)" font-size="22" letter-spacing="0" word-spacing="0" fill="#333" font-family="Nexa Light"><tspan x="172.903" y="295.576" style="line-height:80.00000119%;-inkscape-font-specification:Arial Bold" font-size="12" font-weight="bold" font-family="Arial">novos</tspan><tspan x="172.903" y="305.176" style="line-height:80.00000119%;-inkscape-font-specification:Arial Bold" font-size="12" font-weight="bold" font-family="Arial">produtos</tspan></text><path d="M533.76 79.836c11.555 34.405-6.97 71.662-41.374 83.215-34.405 11.556-71.662-6.97-83.216-41.373-11.554-34.405 6.97-71.662 41.376-83.216 34.405-11.552 71.66 6.97 83.215 41.377z" fill="none" stroke="#33333f" stroke-width="2" stroke-opacity=".941"/><path d="M606.77 123.132c11.555 34.404-6.97 71.66-41.374 83.215-34.405 11.554-71.662-6.97-83.216-41.376-11.554-34.402 6.97-71.66 41.376-83.213 34.405-11.554 71.66 6.97 83.215 41.376z" fill="none" stroke="#33333f" stroke-width="2" stroke-opacity=".941"/><path d="M637.77 45.812c11.553 34.405-6.97 71.662-41.376 83.216-34.405 11.553-71.662-6.97-83.215-41.376-11.556-34.405 6.97-71.662 41.373-83.215 34.405-11.554 71.662 6.97 83.215 41.375z" fill="none" stroke="#33333f" stroke-width="2" stroke-opacity=".941"/><path d="M527.998 109.278c-6.11-6.6-13.93-20.76-12.33-22.326 1.5-1.468 16.018-6.058 16.728-5.287 2.344 2.54 3.785 25.06 2.01 31.397-.643 2.293-.952 2.11-6.408-3.784z" fill="#fa2f77"/><text style="text-align:start;line-height:125%;-inkscape-font-specification:'Nexa Light,'" x="591.918" y="326.215" transform="rotate(4.07 3908.94 -2244.337)" font-size="22" letter-spacing="0" word-spacing="0" fill="#333" font-family="Nexa Light"><tspan x="591.918" y="326.215" style="-inkscape-font-specification:Arial Bold" font-size="18" font-weight="bold" font-family="Arial">desejavel</tspan></text><text style="text-align:start;line-height:125%;-inkscape-font-specification:'Nexa Light,'" x="680.67" y="410.551" transform="rotate(4.07 3908.94 -2244.337)" font-size="22" letter-spacing="0" word-spacing="0" fill="#333" font-family="Nexa Light"><tspan x="680.67" y="410.551" style="-inkscape-font-specification:Arial Bold" font-size="18" font-weight="bold" font-family="Arial">executavel</tspan></text><text style="text-align:start;line-height:125%;-inkscape-font-specification:'Nexa Light,'" x="714.2" y="283.578" transform="rotate(4.07 3908.94 -2244.337)" font-size="22" letter-spacing="0" word-spacing="0" fill="#333" font-family="Nexa Light"><tspan x="714.2" y="283.578" style="-inkscape-font-specification:Arial Bold" font-size="18" font-weight="bold" font-family="Arial">vendavel</tspan></text><path d="M262.05 68.09s107.965 46.026 283.333 28.41" transform="translate(-19.434 .913)" fill="none" stroke="#000" stroke-width="2" stroke-linecap="round" marker-end="url(#c)"/><text style="text-align:start;line-height:80.00000119%;-inkscape-font-specification:'Nexa Light,'" x="190.706" y="467.466" transform="rotate(4.07 3908.94 -2244.337)" font-size="22" letter-spacing="0" word-spacing="0" fill="#333" font-family="Nexa Light"><tspan x="190.706" y="467.466" style="line-height:80.00000119%;-inkscape-font-specification:Arial Bold" font-size="12" font-weight="bold" font-family="Arial">existentes</tspan></text><g fill="none" stroke="#000" stroke-width="2"><path d="M88.244 16.507V180.15" marker-start="url(#d)" transform="translate(-19.434 .913)"/><path d="M87.262 180.15c.777.21 181.8 0 181.8 0" marker-end="url(#c)" transform="translate(-19.434 .913)"/><path d="M69.188 99.242h168.317m-82.327 81.318V27.015" stroke-linecap="round"/></g></svg>