<?xml version="1.0" encoding="UTF-8" standalone="no"?>
<svg
   xmlns:dc="http://purl.org/dc/elements/1.1/"
   xmlns:cc="http://creativecommons.org/ns#"
   xmlns:rdf="http://www.w3.org/1999/02/22-rdf-syntax-ns#"
   xmlns:svg="http://www.w3.org/2000/svg"
   xmlns="http://www.w3.org/2000/svg"
   xmlns:sodipodi="http://sodipodi.sourceforge.net/DTD/sodipodi-0.dtd"
   xmlns:inkscape="http://www.inkscape.org/namespaces/inkscape"
   version="1.1"
   preserveAspectRatio="xMinYMin meet"
   viewBox="0 0 78.155161 78.155161"
   xml:space="preserve"
   id="svg2"
   inkscape:version="0.48.4 r9939"
   sodipodi:docname="adwords.svg"
   width="100%"
   height="100%"><metadata
     id="metadata14"><rdf:RDF><cc:Work
         rdf:about=""><dc:format>image/svg+xml</dc:format><dc:type
           rdf:resource="http://purl.org/dc/dcmitype/StillImage" /><dc:title></dc:title></cc:Work></rdf:RDF></metadata><defs
     id="defs12" /><sodipodi:namedview
     pagecolor="#ffffff"
     bordercolor="#666666"
     borderopacity="1"
     objecttolerance="10"
     gridtolerance="10"
     guidetolerance="10"
     inkscape:pageopacity="0"
     inkscape:pageshadow="2"
     inkscape:window-width="1317"
     inkscape:window-height="744"
     id="namedview10"
     showgrid="false"
     inkscape:zoom="1.888"
     inkscape:cx="-40.601856"
     inkscape:cy="36.298933"
     inkscape:window-x="49"
     inkscape:window-y="24"
     inkscape:window-maximized="1"
     inkscape:current-layer="svg2"
     fit-margin-top="0"
     fit-margin-left="0"
     fit-margin-right="0"
     fit-margin-bottom="0" /><path
     style="fill:none;stroke:#333333;stroke-width:0.90291589000000005;stroke-linecap:round;stroke-linejoin:round;stroke-miterlimit:4;stroke-opacity:1;stroke-dasharray:none"
     d="M 46.163575 5.4277455 C 61.75199 8.6938584 73.458432 22.518626 73.458432 39.07758 L 73.458432 39.07758 L 73.458432 39.07758 C 73.458432 49.570276 68.758048 58.96514 61.348032 65.271415 "
     id="path3925" /><path
     style="fill:none;stroke:#333333;stroke-width:0.90291589000000005;stroke-linecap:round;stroke-linejoin:round;stroke-miterlimit:4;stroke-opacity:1;stroke-dasharray:none"
     d="M 17.181887 65.585808 C 9.5559508 59.279672 4.6967273 49.746092 4.6967273 39.07758 C 4.6967273 22.441812 16.512029 8.5656569 32.208769 5.3829755 "
     id="path3921" /><g
     inkscape:groupmode="layer"
     id="layer1"
     inkscape:label="Fundo"
     style="display:inline" /><path
     inkscape:connector-curvature="0"
     d="m 39.325326,23.888572 c 2.857351,0 5.126424,-2.269073 5.126424,-5.126425 0,-2.857351 -2.269073,-5.126424 -5.126424,-5.126424 -2.85735,0 -5.126425,2.269073 -5.126425,5.126424 0,2.857352 2.269075,5.126425 5.126425,5.126425 z m 0,-7.059339 c 1.092517,0 1.932914,0.840398 1.932914,1.932914 0,1.092518 -0.840397,1.932915 -1.932914,1.932915 -1.092517,0 -1.932914,-0.840397 -1.932914,-1.932915 0,-1.092516 0.924437,-1.932914 1.932914,-1.932914 z m 6.891259,29.918149 c 0.16808,0 0.336159,-0.08404 0.504238,-0.16808 0.25212,-0.16808 1.428677,-1.008477 2.605232,-3.613709 2.521192,2.269073 3.613709,5.882782 3.613709,5.882782 0.16808,0.672317 0.840397,1.176555 1.512715,1.176555 0.08404,0 0.08404,0 0.16808,0 0.756358,-0.08404 1.344635,-0.672317 1.428675,-1.512714 0.840398,-11.513445 -3.10947,-17.900465 -4.454106,-19.6653 0,-0.252119 0,-0.588277 0,-0.840397 0,-15.127154 -10.757086,-25.5480809 -11.177285,-25.9682796 -0.588278,-0.5882781 -1.596755,-0.5882781 -2.269073,0 -0.4202,0.4201987 -11.093247,10.8411256 -11.093247,25.9682796 0,0.25212 0,0.588278 0,0.840397 -1.344635,1.764835 -5.294503,8.151855 -4.454106,19.6653 0.08404,0.756357 0.672318,1.428675 1.428676,1.512714 0.08404,0 0.08404,0 0.16808,0 0.672317,0 1.344635,-0.504238 1.512715,-1.176555 0,-0.08404 1.092516,-3.613709 3.613708,-5.882782 1.176556,2.605232 2.353113,3.445629 2.605232,3.613709 0.16808,0.08404 0.336159,0.16808 0.504239,0.16808 0.08404,0 1.344635,0.252119 3.109471,0.504238 0.420199,2.77331 1.176557,5.378543 2.437152,7.143378 0.336159,0.420199 0.840398,0.672318 1.344636,0.672318 0.504239,0 1.008477,-0.252119 1.260597,-0.672318 1.344635,-1.764835 2.016953,-4.286027 2.437151,-7.143378 1.848876,-0.252119 3.109472,-0.504238 3.193511,-0.504238 z m 6.5551,-4.790266 c -0.672318,-0.840398 -1.512715,-1.596756 -2.437153,-2.269073 0.336159,-1.344636 0.672318,-2.857351 0.840397,-4.622185 0.756358,1.680794 1.344637,4.033906 1.596756,6.891258 z m -26.892718,0 c 0.252119,-2.857352 0.924437,-5.126424 1.596754,-6.891258 0.25212,1.764834 0.504239,3.361589 0.840399,4.622185 -1.008477,0.672317 -1.764835,1.428675 -2.437153,2.269073 z m 7.731656,1.680794 c -0.672318,-0.756357 -3.27755,-4.286027 -3.27755,-15.715431 0,-10.925167 6.387022,-19.4131795 9.076293,-22.4386101 2.605231,3.0254306 9.076292,11.4294041 9.076292,22.4386101 0,11.513445 -2.689272,15.043114 -3.27755,15.631392 -0.336158,0.08404 -0.924438,0.16808 -1.680795,0.252119 0.33616,-4.790265 -0.08404,-9.244371 -0.168079,-10.084769 0,-0.420198 -0.252119,-0.756358 -0.504238,-1.008477 -0.16808,-0.08404 -1.428676,-1.176555 -3.361591,-1.176555 0,0 0,0 0,0 -1.932913,0 -3.193509,1.092516 -3.361589,1.176555 -0.336159,0.252119 -0.504239,0.672318 -0.504239,1.008477 -0.08404,0.840398 -0.504238,5.378543 -0.168078,10.084769 -0.924438,0 -1.512717,-0.08404 -1.848876,-0.16808 z m 5.714703,5.882782 C 38.06473,45.150626 38.316849,38.343407 38.568969,34.897778 c 0.168078,-0.08404 0.420198,-0.16808 0.756357,-0.16808 0,0 0,0 0,0 0.336159,0 0.588278,0.08404 0.756358,0.16808 0.252119,3.529669 0.420198,10.252848 -0.756358,14.622914 z m -3.361589,5.294505 c 0.672317,0.672319 0.672317,1.680795 0,2.269073 -0.672318,0.588278 -1.680796,0.672319 -2.269074,0 -0.756358,-0.756357 -1.764835,-1.176557 -2.773312,-1.176557 -2.185034,0 -3.949868,1.764835 -3.949868,3.949869 0,1.344635 0.672318,2.605231 1.848875,3.361589 0,0 0,0 0,0 0.08404,0 0.08404,0.08404 0.168079,0.08404 0,0 0.08404,0.08404 0.08404,0.08404 0,0 0.08404,0.08404 0.08404,0.168079 0,0 0.08404,0.08404 0.08404,0.08404 0,0.08404 0.08404,0.08404 0.08404,0.168078 0,0 0.08404,0.08404 0.08404,0.08404 0,0.08404 0,0.08404 0.08404,0.168079 0,0.08404 0,0.08404 0.08404,0.16808 0,0.08404 0,0.08404 0,0.16808 0,0.08404 0,0.08404 0,0.168079 0,0 0,0 0,0 0,0 0,0.08404 0,0.08404 0,0.08404 0,0.08404 0,0.168078 0,0.08404 0,0.08404 0,0.16808 0,0.08404 0,0.08404 -0.08404,0.16808 0,0.08404 -0.08404,0.08404 -0.08404,0.168079 0,0 0,0.08404 -0.08404,0.08404 0,0 0,0 0,0 -0.08404,0.08404 -0.16808,0.168078 -0.252119,0.252119 0,0 -0.08404,0.08404 -0.08404,0.08404 -0.08404,0.08404 -0.168079,0.08404 -0.25212,0.16808 0,0 -0.08404,0 -0.08404,0.08404 -0.08404,0 -0.16808,0.08404 -0.252119,0.08404 0,0 -0.08404,0 -0.08404,0 -0.08404,0 -0.252119,0.08404 -0.33616,0.08404 -3.697748,0 -6.807218,3.025431 -6.807218,6.807218 0,0.924438 -0.756357,1.596756 -1.596756,1.596756 -0.840397,0 -1.596754,-0.756358 -1.596754,-1.596756 0,-4.370066 2.85735,-8.067814 6.807219,-9.412451 -0.672319,-1.092516 -1.008477,-2.353112 -1.008477,-3.613708 0,-3.445629 2.437153,-6.302981 5.630662,-6.975298 0.252119,-1.596756 1.008477,-3.193512 2.100993,-4.454107 0.588279,-0.672319 1.596756,-0.672319 2.269073,-0.08404 0.67232,0.588279 0.67232,1.596755 0.08404,2.269073 -0.58828,0.672318 -1.008477,1.512717 -1.260597,2.353114 1.344636,0.252119 2.437153,0.840397 3.361591,1.764834 z M 60.67142,72.967781 c 0,0.924437 -0.756357,1.596756 -1.596756,1.596756 -0.924436,0 -1.596754,-0.756358 -1.596754,-1.596756 0,-3.697748 -3.025431,-6.807218 -6.807219,-6.807218 0,0 0,0 -0.08404,0 -0.924438,0.420197 -1.848874,0.672317 -2.941391,0.672317 -0.924437,0 -1.596756,-0.756358 -1.596756,-1.596755 0,-0.924438 0.756358,-1.596755 1.596756,-1.596755 2.100994,0 3.781788,-1.680795 3.781788,-3.781788 0,-2.100993 -1.680794,-3.781789 -3.781788,-3.781789 -0.504238,0 -1.092517,0.08404 -1.596756,0.336159 -0.840397,0.33616 -1.764834,0 -2.100993,-0.840397 -0.336158,-0.840397 0,-1.764835 0.840397,-2.100993 0.33616,-0.16808 0.756358,-0.25212 1.092518,-0.420199 -0.25212,-0.840397 -0.588279,-1.680796 -1.260596,-2.353114 -0.588279,-0.672319 -0.588279,-1.680794 0.08404,-2.269073 0.672318,-0.588278 1.680795,-0.588278 2.269073,0.08404 1.092516,1.260595 1.848874,2.773311 2.100993,4.454107 3.10947,0.672317 5.546623,3.529669 5.546623,6.891258 0,1.344636 -0.420199,2.605232 -1.008477,3.697748 4.117947,1.176557 7.059338,4.958345 7.059338,9.412451 z"
     id="path4"
     style="fill:#fa3077;fill-opacity:1;stroke:#ffffff;stroke-opacity:1;stroke-width:1.20000003;stroke-miterlimit:4;stroke-dasharray:none" /></svg>