<?xml version="1.0" encoding="UTF-8" standalone="no"?>
<svg
   xmlns:dc="http://purl.org/dc/elements/1.1/"
   xmlns:cc="http://creativecommons.org/ns#"
   xmlns:rdf="http://www.w3.org/1999/02/22-rdf-syntax-ns#"
   xmlns:svg="http://www.w3.org/2000/svg"
   xmlns="http://www.w3.org/2000/svg"
   xmlns:sodipodi="http://sodipodi.sourceforge.net/DTD/sodipodi-0.dtd"
   xmlns:inkscape="http://www.inkscape.org/namespaces/inkscape"
   version="1.1"
   viewBox="0 0 78.155161 78.155161"
   preserveAspectRatio="xMinYMin meet"
   xml:space="preserve"
   id="svg2"
   inkscape:version="0.48.4 r9939"
   sodipodi:docname="robot.svg"
   width="100%"
   height="100%"><metadata
     id="metadata14"><rdf:RDF><cc:Work
         rdf:about=""><dc:format>image/svg+xml</dc:format><dc:type
           rdf:resource="http://purl.org/dc/dcmitype/StillImage" /><dc:title /></cc:Work></rdf:RDF></metadata><defs
     id="defs12" /><sodipodi:namedview
     pagecolor="#ffffff"
     bordercolor="#666666"
     borderopacity="1"
     objecttolerance="10"
     gridtolerance="10"
     guidetolerance="10"
     inkscape:pageopacity="0"
     inkscape:pageshadow="2"
     inkscape:window-width="1317"
     inkscape:window-height="744"
     id="namedview10"
     showgrid="false"
     inkscape:zoom="5.3400704"
     inkscape:cx="51.921585"
     inkscape:cy="44.978321"
     inkscape:window-x="49"
     inkscape:window-y="24"
     inkscape:window-maximized="1"
     inkscape:current-layer="svg2"
     fit-margin-top="0"
     fit-margin-left="0"
     fit-margin-right="0"
     fit-margin-bottom="0" /><path
     sodipodi:type="arc"
     style="fill:none;stroke:#333333;stroke-width:0.91806322;stroke-linecap:butt;stroke-linejoin:round;stroke-miterlimit:4;stroke-opacity:1;stroke-dasharray:none"
     id="path4986"
     sodipodi:cx="51.641949"
     sodipodi:cy="39.989407"
     sodipodi:rx="34.957626"
     sodipodi:ry="34.957626"
     d="m 86.599575,39.989407 a 34.957626,34.957626 0 1 1 -69.915253,0 34.957626,34.957626 0 1 1 69.915253,0 z"
     transform="matrix(0.9835008,0,0,0.9835008,-11.712317,-0.25203286)" /><g
     inkscape:groupmode="layer"
     id="layer1"
     inkscape:label="Fundo"
     style="display:inline" /><path
     sodipodi:nodetypes="ccccccccccccccccc"
     inkscape:connector-curvature="0"
     id="path6261-9"
     d="M 7.3969344,57.354681 9.0590822,49.800715 21.362487,22.446816 21.140045,11.47749 47.248363,8.4447219 l 9.696547,5.4428301 0.09359,8.639908 10.376874,15.822811 3.237482,11.298005 -0.778165,7.872091 -4.734043,0.836982 -3.976256,4.104725 -0.207714,9.873557 -43.017396,-0.351752 0.181715,-9.333645 -4.023814,-3.835713 z"
     style="fill:#ffffff;fill-opacity:1;stroke:none" /><g
     inkscape:groupmode="layer"
     id="layer2"
     inkscape:label="Icones" /><g
     transform="matrix(0.69128612,0,0,0.69128612,159.51013,-271.3188)"
     id="g4"
     style="fill:#fa3077;fill-opacity:1"><circle
       sodipodi:ry="2.9000001"
       sodipodi:rx="2.9000001"
       sodipodi:cy="417"
       sodipodi:cx="-179.3"
       d="m -176.4,417 c 0,1.60163 -1.29838,2.9 -2.9,2.9 -1.60163,0 -2.9,-1.29837 -2.9,-2.9 0,-1.60163 1.29837,-2.9 2.9,-2.9 1.60162,0 2.9,1.29837 2.9,2.9 z"
       cx="-179.3"
       cy="417"
       r="2.9000001"
       id="circle6"
       style="fill:#fa3077;fill-opacity:1" /><circle
       sodipodi:ry="2.9000001"
       sodipodi:rx="2.9000001"
       sodipodi:cy="417"
       sodipodi:cx="-168.60001"
       d="m -165.70001,417 c 0,1.60163 -1.29837,2.9 -2.9,2.9 -1.60162,0 -2.9,-1.29837 -2.9,-2.9 0,-1.60163 1.29838,-2.9 2.9,-2.9 1.60163,0 2.9,1.29837 2.9,2.9 z"
       cx="-168.60001"
       cy="417"
       r="2.9000001"
       id="circle8"
       style="fill:#fa3077;fill-opacity:1" /><path
       inkscape:connector-curvature="0"
       d="m -137.7,463.9 v -12.2 c 0,-0.2 0,-0.3 -0.1,-0.4 -0.7,-6.6 -6,-11.9 -12.7,-12.4 v -3.7 c 0,-0.9 -0.7,-1.6 -1.6,-1.6 h -16 v -5.2 h 7 c 0.9,0 1.6,-0.7 1.6,-1.6 v -7.5 h 7.3 c 0.9,0 1.6,-0.7 1.6,-1.6 0,-0.9 -0.7,-1.6 -1.6,-1.6 h -7.3 v -7.5 c 0,-0.9 -0.7,-1.6 -1.6,-1.6 h -26 c -0.9,0 -1.6,0.7 -1.6,1.6 v 7.5 h -7.3 c -0.9,0 -1.6,0.7 -1.6,1.6 0,0.9 0.7,1.6 1.6,1.6 h 7.3 v 7.5 c 0,0.9 0.7,1.6 1.6,1.6 h 7 v 5.2 h -16 c -0.9,0 -1.6,0.7 -1.6,1.6 v 3.7 c -6.6,0.6 -11.8,5.9 -12.5,12.4 0,0.1 -0.1,0.3 -0.1,0.4 V 464 c -3.9,0.7 -6.8,4.2 -6.8,8.2 0,0.9 0.7,1.6 1.6,1.6 0.9,0 1.6,-0.7 1.6,-1.6 0,-2.9 2.4,-5.2 5.2,-5.2 2.9,0 5.2,2.4 5.2,5.2 0,0.9 0.7,1.6 1.6,1.6 0.9,0 1.6,-0.7 1.6,-1.6 0,-4.1 -2.9,-7.5 -6.8,-8.2 v -11.4 c 0,-5.5 4.1,-10 9.4,-10.7 v 26.3 c 0,0.9 0.7,1.6 1.6,1.6 h 4.5 v 6.5 h -2.8 c -0.9,0 -1.6,0.7 -1.6,1.6 v 13.9 h -5.6 c -0.9,0 -1.6,0.7 -1.6,1.6 0,0.9 0.7,1.6 1.6,1.6 h 7.2 16.7 7.6 16.7 7.2 c 0.9,0 1.6,-0.7 1.6,-1.6 0,-0.9 -0.7,-1.6 -1.6,-1.6 h -5.7 V 478 c 0,-0.9 -0.7,-1.6 -1.6,-1.6 h -2.8 v -6.5 h 4.2 c 0.9,0 1.6,-0.7 1.6,-1.6 V 442 c 5.4,0.6 9.6,5.2 9.6,10.7 V 464 c -3.9,0.7 -6.8,4.2 -6.8,8.2 0,0.9 0.7,1.6 1.6,1.6 0.9,0 1.6,-0.7 1.6,-1.6 0,-2.9 2.4,-5.2 5.2,-5.2 2.9,0 5.2,2.4 5.2,5.2 0,0.9 0.7,1.6 1.6,1.6 0.9,0 1.6,-0.7 1.6,-1.6 0,-4.1 -2.9,-7.5 -6.8,-8.3 z m -47.7,-38.7 v -7.3 c 0,-0.1 0,-0.1 0,-0.2 0,-0.1 0,-0.1 0,-0.2 v -7.3 h 22.9 v 15 h -7 -8.8 -7.1 z m 14.3,3.1 v 5.2 h -5.7 v -5.2 h 5.7 z m -8.2,63.5 h -13.5 v -12.3 h 2.8 8 2.8 l -0.1,12.3 0,0 z m -9.2,-15.4 v -6.5 h 4.9 v 6.5 h -4.9 z m 16.8,1.6 v 13.9 h -4.4 V 478 c 0,-0.9 -0.7,-1.6 -1.6,-1.6 h -2.8 v -6.5 h 13.1 v 6.5 h -2.8 c -0.8,0 -1.5,0.7 -1.5,1.6 z m 16.6,1.5 v 4.6 h -6.8 c -0.9,0 -1.6,0.7 -1.6,1.6 0,0.9 0.7,1.6 1.6,1.6 h 6.8 v 4.6 h -13.5 v -12.4 h 2.8 8 l 2.7,0 0,0 z m -9.2,-3.1 v -6.5 h 4.9 v 6.5 h -4.9 z m 10.7,-9.7 h -4.2 -8 -16.3 -8 -4.2 v -30 h 16 8.8 16 v 30 h -0.1 z"
       id="path10"
       style="fill:#fa3077;fill-opacity:1" /><path
       inkscape:connector-curvature="0"
       d="m -185.6,444.8 c -0.9,0 -1.6,0.7 -1.6,1.6 v 9.3 c 0,0.9 0.7,1.6 1.6,1.6 0.9,0 1.6,-0.7 1.6,-1.6 v -9.3 c 0,-0.9 -0.8,-1.6 -1.6,-1.6 z"
       id="path12"
       style="fill:#fa3077;fill-opacity:1" /><path
       inkscape:connector-curvature="0"
       d="m -177.8,444.8 c -0.9,0 -1.6,0.7 -1.6,1.6 v 9.3 c 0,0.9 0.7,1.6 1.6,1.6 0.9,0 1.6,-0.7 1.6,-1.6 v -9.3 c -0.1,-0.9 -0.8,-1.6 -1.6,-1.6 z"
       id="path14"
       style="fill:#fa3077;fill-opacity:1" /><path
       inkscape:connector-curvature="0"
       d="m -171.6,446.3 v 9.3 c 0,0.9 0.7,1.6 1.6,1.6 0.9,0 1.6,-0.7 1.6,-1.6 v -9.3 c 0,-0.9 -0.7,-1.6 -1.6,-1.6 -0.9,0.1 -1.6,0.8 -1.6,1.6 z"
       id="path16"
       style="fill:#fa3077;fill-opacity:1" /><path
       inkscape:connector-curvature="0"
       d="m -162.3,457.2 c 0.9,0 1.6,-0.7 1.6,-1.6 v -9.3 c 0,-0.9 -0.7,-1.6 -1.6,-1.6 -0.9,0 -1.6,0.7 -1.6,1.6 v 9.3 c 0.1,0.9 0.8,1.6 1.6,1.6 z"
       id="path18"
       style="fill:#fa3077;fill-opacity:1" /></g></svg>