<?xml version="1.0" encoding="UTF-8" standalone="no"?>
<svg
   xmlns:dc="http://purl.org/dc/elements/1.1/"
   xmlns:cc="http://creativecommons.org/ns#"
   xmlns:rdf="http://www.w3.org/1999/02/22-rdf-syntax-ns#"
   xmlns:svg="http://www.w3.org/2000/svg"
   xmlns="http://www.w3.org/2000/svg"
   xmlns:sodipodi="http://sodipodi.sourceforge.net/DTD/sodipodi-0.dtd"
   xmlns:inkscape="http://www.inkscape.org/namespaces/inkscape"
   version="1.1"
   viewBox="0 0 78.155161 78.155161"
   preserveAspectRatio="xMinYMin meet"
   xml:space="preserve"
   id="svg2"
   inkscape:version="0.48.4 r9939"
   sodipodi:docname="ux.svg">
   <metadata
     id="metadata14"><rdf:RDF><cc:Work
         rdf:about=""><dc:format>image/svg+xml</dc:format><dc:type
           rdf:resource="http://purl.org/dc/dcmitype/StillImage" /><dc:title></dc:title></cc:Work></rdf:RDF></metadata><defs
     id="defs12" /><sodipodi:namedview
     pagecolor="#ffffff"
     bordercolor="#666666"
     borderopacity="1"
     objecttolerance="10"
     gridtolerance="10"
     guidetolerance="10"
     inkscape:pageopacity="0"
     inkscape:pageshadow="2"
     inkscape:window-width="1317"
     inkscape:window-height="744"
     id="namedview10"
     showgrid="false"
     inkscape:zoom="2.6700352"
     inkscape:cx="101.7562"
     inkscape:cy="0.31492156"
     inkscape:window-x="49"
     inkscape:window-y="24"
     inkscape:window-maximized="1"
     inkscape:current-layer="svg2"
     fit-margin-top="0"
     fit-margin-left="0"
     fit-margin-right="0"
     fit-margin-bottom="0" /><path
     sodipodi:type="arc"
     style="fill:none;stroke:#333333;stroke-width:0.91806322;stroke-linecap:butt;stroke-linejoin:round;stroke-miterlimit:4;stroke-opacity:1;stroke-dasharray:none"
     id="path4986"
     sodipodi:cx="51.641949"
     sodipodi:cy="39.989407"
     sodipodi:rx="34.957626"
     sodipodi:ry="34.957626"
     d="m 86.599575,39.989407 a 34.957626,34.957626 0 1 1 -69.915253,0 34.957626,34.957626 0 1 1 69.915253,0 z"
     transform="matrix(0.9835008,0,0,0.9835008,-11.712317,-0.25203286)" /><g
     inkscape:groupmode="layer"
     id="layer1"
     inkscape:label="Fundo"
     style="display:inline" /><path
     sodipodi:nodetypes="cccccccccsc"
     inkscape:connector-curvature="0"
     id="path6261-9"
     d="M 17.976268,60.553283 8.2077276,31.389953 3.7442461,21.081895 27.737026,2.6442575 52.505081,2.7300775 52.044554,13.188462 67.673421,29.653929 63.266798,60.964315 c -1.451494,1.664158 -5.184008,4.60466 -8.032704,12.721293 -8.632392,-0.385242 -19.586448,3.232461 -22.895816,2.735275 -7.62489,-1.145534 -2.981034,-8.665945 -14.36201,-15.8676 z"
     style="fill:#ffffff;fill-opacity:1;stroke:none" /><g
     inkscape:groupmode="layer"
     id="layer2"
     inkscape:label="Icones"><g
       transform="matrix(1.0116157,0,0,1.0116157,-68.590383,18.792816)"
       id="g4251"><g
         id="g4306"
         transform="translate(59.322035,-24.364407)"><path
           style="fill:#fa3077;fill-opacity:1;stroke:#fa3077;stroke-width:1.45370162;stroke-miterlimit:4;stroke-opacity:1;stroke-dasharray:none"
           id="path4253"
           d="m 70.955,40.259 c -0.549,-0.697 -1.492,-1.203 -2.627,-1.453 -0.068,-0.129 -0.188,-0.234 -0.342,-0.283 -0.008,-0.002 -0.016,0 -0.023,-0.002 -0.62,-3.756 -3.59,-4.031 -4.524,-4.018 -0.156,0.002 -0.604,0.018 -1.036,0.115 -0.291,-1.752 -1.912,-2.797 -3.357,-3.18 -1.357,-0.357 -2.229,0.021 -3.152,0.426 -0.371,0.162 -0.759,0.324 -1.196,0.453 -0.009,-0.074 -0.036,-0.141 -0.073,-0.199 0.066,-1.184 0.16,-2.375 0.254,-3.537 0.062,-0.748 0.124,-1.496 0.177,-2.244 l 0.534,-7.5 c 0.094,-1.361 0.078,-2.465 -0.05,-3.467 -0.271,-2.133 -1.006,-3.453 -2.249,-4.033 -1.17,-0.549 -2.707,-0.576 -3.516,0.598 -0.337,0.494 -0.49,1.057 -0.625,1.555 -0.598,2.221 -1.707,6.971 -2.781,11.566 -1.063,4.543 -2.066,8.836 -2.557,10.621 -0.201,0.738 -0.631,2.467 -1.08,4.275 l -1.174,4.566 c -0.008,-0.006 -0.012,-0.012 -0.017,-0.02 -3.179,-4.447 -5.802,-6.154 -9.87,-8.918 -1.08,-0.734 -3.201,-1.854 -5.281,-1.117 -1.484,0.527 -2.49,1.557 -2.758,2.832 -0.27,1.266 0.219,2.598 1.34,3.66 0.422,0.398 0.879,0.752 1.32,1.094 0.461,0.357 0.893,0.691 1.291,1.074 3.115,3.004 4.515,9.807 5.047,12.443 0.238,1.176 0.342,2.406 0.439,3.596 0.071,0.857 0.145,1.744 0.271,2.617 0.456,3.23 2.174,7.512 5.499,8.945 0.258,0.111 0.557,-0.006 0.668,-0.266 0.113,-0.258 -0.008,-0.557 -0.264,-0.668 -2.752,-1.189 -4.44,-4.951 -4.896,-8.154 -0.121,-0.846 -0.193,-1.717 -0.264,-2.559 -0.1,-1.219 -0.207,-2.48 -0.455,-3.713 -0.577,-2.857 -1.849,-9.613 -5.339,-12.977 -0.437,-0.42 -0.913,-0.789 -1.372,-1.145 -0.443,-0.344 -0.861,-0.666 -1.244,-1.031 -0.856,-0.811 -1.238,-1.797 -1.046,-2.711 0.192,-0.914 0.961,-1.674 2.103,-2.08 1.656,-0.586 3.447,0.375 4.369,1 3.918,2.66 6.689,4.576 9.613,8.668 0.238,0.332 0.433,0.674 0.579,1.016 0.085,0.199 0.288,0.322 0.501,0.307 0.218,-0.014 0.401,-0.164 0.457,-0.373 0.23,-0.842 0.762,-2.982 1.274,-5.053 0.069,-0.279 0.141,-0.564 0.21,-0.844 l 0.947,-3.672 c 0.011,-0.045 0.011,-0.092 0.01,-0.137 0.039,-0.148 0.074,-0.279 0.104,-0.389 0.496,-1.803 1.502,-6.104 2.566,-10.658 1.072,-4.588 2.182,-9.33 2.773,-11.533 0.119,-0.439 0.242,-0.895 0.48,-1.242 0.465,-0.682 1.489,-0.609 2.244,-0.256 0.901,0.422 1.449,1.482 1.671,3.242 0.12,0.936 0.134,1.975 0.046,3.27 l -0.537,7.496 c -0.053,0.746 -0.113,1.488 -0.176,2.232 -0.121,1.502 -0.246,3.057 -0.307,4.59 -0.003,0.039 0.019,0.076 0.025,0.117 l -0.804,6.635 c -0.032,0.279 0.163,0.531 0.443,0.566 0.278,0.033 0.534,-0.164 0.567,-0.445 l 0.791,-6.537 c 0.067,-0.025 0.135,-0.051 0.197,-0.068 0.592,-0.15 1.088,-0.369 1.521,-0.557 0.854,-0.373 1.471,-0.645 2.488,-0.375 1.274,0.338 2.725,1.303 2.639,2.908 l -1.303,7.42 c -0.049,0.277 0.139,0.541 0.413,0.59 0.278,0.051 0.542,-0.135 0.588,-0.414 l 1.274,-7.246 c 0.406,-0.141 1.658,-0.357 2.784,0.211 1.083,0.547 1.706,1.666 1.853,3.328 0.006,0.084 0.041,0.16 0.086,0.229 l -1.183,4.012 c -0.079,0.275 0.056,0.564 0.312,0.68 0.023,0.012 0.05,0.02 0.074,0.027 0.302,0.09 0.62,-0.082 0.707,-0.385 l 1.172,-3.969 c 0.859,0.207 1.566,0.584 1.956,1.074 0.313,0.4 0.434,0.865 0.363,1.418 -0.147,1.199 -0.517,2.549 -0.862,3.711 -0.273,0.926 -0.598,1.869 -0.961,2.801 -0.324,0.832 -1.112,3.318 -2.108,6.473 -1.87,5.898 -4.688,14.813 -5.618,16.24 -1.17,1.799 -2.333,2.414 -3.568,3.064 -1.559,0.824 -3.174,1.672 -4.533,4.896 -0.109,0.258 0.01,0.557 0.27,0.668 0.26,0.109 0.558,-0.012 0.666,-0.271 1.221,-2.887 2.544,-3.584 4.072,-4.395 1.234,-0.65 2.634,-1.387 3.945,-3.406 0.931,-1.428 3.148,-8.313 5.736,-16.49 0.951,-3.012 1.776,-5.609 2.086,-6.408 0.375,-0.961 0.709,-1.93 0.99,-2.883 0.357,-1.201 0.741,-2.602 0.897,-3.875 0.028,-0.23 0.034,-0.451 0.019,-0.666 -0.042,-0.556 -0.241,-1.06 -0.593,-1.503 z"
           inkscape:connector-curvature="0" /><path
           style="fill:#fa3077;fill-opacity:1;stroke:#fa3077;stroke-width:0.67731726;stroke-miterlimit:4;stroke-opacity:1;stroke-dasharray:none"
           id="path4255"
           d="m 26.422,29.821 -1.861,-2.512 5.404,-4.008 c 0.38,-0.281 0.459,-0.816 0.178,-1.197 -0.281,-0.377 -0.816,-0.457 -1.193,-0.176 l -5.406,4.01 -1.863,-2.51 c -0.255,-0.346 -0.744,-0.416 -1.087,-0.162 -0.212,0.156 -0.566,0.42 -2.077,5.484 -0.166,0.629 -0.055,1.27 0.307,1.754 0.358,0.486 0.938,0.777 1.615,0.805 5.258,0.02 5.612,-0.242 5.824,-0.398 0.341,-0.256 0.415,-0.746 0.159,-1.09 z m -5.953,-0.068 c -0.18,-0.006 -0.32,-0.068 -0.398,-0.174 -0.079,-0.105 -0.098,-0.262 -0.059,-0.408 0.392,-1.307 0.863,-2.779 1.211,-3.748 l 3.158,4.258 c -1.026,0.05 -2.563,0.078 -3.912,0.072 z"
           inkscape:connector-curvature="0" /><path
           style="fill:#fa3077;fill-opacity:1;stroke:#fa3077;stroke-width:0.67731726;stroke-miterlimit:4;stroke-opacity:1;stroke-dasharray:none"
           id="path4257"
           d="m 35.859,19.181 5.404,-4.01 1.863,2.512 c 0.258,0.344 0.744,0.416 1.09,0.16 0.211,-0.156 0.564,-0.418 2.076,-5.482 C 46.456,11.73 46.345,11.09 45.983,10.605 45.626,10.121 45.045,9.83 44.37,9.802 39.11,9.781 38.757,10.044 38.545,10.2 c -0.343,0.256 -0.416,0.744 -0.161,1.09 l 1.863,2.51 -5.406,4.01 c -0.379,0.281 -0.458,0.816 -0.178,1.195 0.283,0.377 0.819,0.457 1.196,0.176 z m 8.479,-7.823 c 0.18,0.006 0.321,0.066 0.398,0.172 0.078,0.107 0.099,0.262 0.059,0.41 -0.391,1.307 -0.863,2.779 -1.209,3.748 l -3.16,-4.26 c 1.026,-0.05 2.565,-0.077 3.912,-0.07 z"
           inkscape:connector-curvature="0" /></g></g></g></svg>
